<svg xmlns="http://www.w3.org/2000/svg" xmlns:xlink="http://www.w3.org/1999/xlink" width="132.433" height="27.885" viewBox="0 0 132.433 27.885"><defs><clipPath id="a"><rect width="132.433" height="27.885" fill="none"/></clipPath><clipPath id="b"><rect width="132.433" height="27.884" fill="none"/></clipPath><clipPath id="c"><rect width="85.521" height="27.457" fill="none"/></clipPath><clipPath id="d"><rect width="18.303" height="24.534" fill="none"/></clipPath></defs><g style="isolation:isolate"><g clip-path="url(#a)"><g transform="translate(0 0)"><g clip-path="url(#b)"><g transform="translate(46.911 0.389)" style="mix-blend-mode:multiply;isolation:isolate"><g clip-path="url(#c)"><path d="M45.254.375H51.36V27.832H45.254Zm4.666,0H64.776V5.626H49.92Zm0,10.889H63.61v5.1H49.92Zm0,11.28H64.971v5.289H49.92Z" transform="translate(-45.254 -0.375)" fill="#fff"/><path d="M73.955.375h6.106V27.832H73.955ZM78.66,22.466H92.234v5.367H78.66Z" transform="translate(-44.202 -0.375)" fill="#fff"/><path d="M100.629,27.833V.375h4.356L115.8,17.215h-2.217L124.353.375h4.394V27.833h-6.107V10.682l1.089.273-7.04,10.967h-4.044l-7-10.967,1.05-.273V27.833Z" transform="translate(-43.225 -0.375)" fill="#fff"/></g></g><g transform="translate(8.734 3.351)" style="mix-blend-mode:multiply;isolation:isolate"><g clip-path="url(#d)"><path d="M26.729,20.649l0-17.416L17.994,6.489,18,17.3,8.426,21.02v6.746Z" transform="translate(-8.426 -3.233)" fill="#fff"/></g></g><g transform="translate(0 0)" style="mix-blend-mode:multiply;isolation:isolate"><g transform="translate(0 0)"><g clip-path="url(#d)"><path d="M18.3,6.607V0L0,6.825,0,24.534l8.732-3.4V10.176Z" transform="translate(0 0)" fill="#fff"/></g></g></g></g></g></g></g></svg>