<svg xmlns="http://www.w3.org/2000/svg" width="193.434" height="40.784" viewBox="0 0 193.434 40.784"><g transform="translate(0)"><path d="M38.274.208H29.358V40.316h28.8V32.59H38.274V23.555H56.168V16.117H38.274V7.882h19.6V.208Z" transform="translate(39.164 0.277)" fill="#262c44"/><path d="M47.975.208V40.316h26.7V32.478H56.891V.208Z" transform="translate(64.001 0.277)" fill="#262c44"/><path d="M99.931.208,85.813,22.278,71.648.208h-6.37V40.316h8.865V18.068l8.69,13.612H88.74l8.69-13.535V40.316h8.921V.208Z" transform="translate(87.083 0.277)" fill="#262c44"/><path d="M19.471,6.864l-.539,15.264L5.473,27.571V37.983L32.245,27.571l0-25.471Z" transform="translate(7.303 2.801)" fill="#e5b900"/><path d="M26.771,0,0,9.983l0,25.9,12.772-4.967.539-15.491,13.456-5.219Z" transform="translate(0 0)" fill="#e5b900"/><path d="M19.47,4.143l-14,5.219,0,16.032,14-5.443Z" transform="translate(7.301 5.526)" fill="#cd8600"/></g></svg>