<svg xmlns="http://www.w3.org/2000/svg" width="114.614" height="27.728" viewBox="0 0 114.614 27.728"><g transform="translate(0 0)"><path d="M46.481,9.072A.724.724,0,0,0,46,8.881c-1.319.007-2.638,0-3.957,0-.676,0-.689,0-.679.663,0,.273-.087.344-.35.34q-1.606-.02-3.213,0c-.278,0-.372-.075-.369-.36.014-1.093.016-2.187,0-3.28,0-.283.1-.338.351-.335.958.012,1.916,0,2.875,0,.692,0,.709,0,.694.681-.006.291.11.33.357.328,1.195-.01,2.392-.051,3.584.013A1.818,1.818,0,0,0,47.011,6.2a.9.9,0,0,0,.237-.6c-.014-.789-.011-1.578,0-2.367a.645.645,0,0,0-.209-.506Q45.776,1.487,44.53.223a.648.648,0,0,0-.509-.2q-4.616.007-9.233,0A.756.756,0,0,0,34.2.274c-.63.645-1.271,1.279-1.911,1.913-.234.231-.478.451-.779.734a7.167,7.167,0,0,1,.007-.993A1.644,1.644,0,0,0,30.821.265a.9.9,0,0,0-.6-.243c-.89.013-1.784.053-2.671-.01a1.772,1.772,0,0,0-1.695.71.936.936,0,0,0-.245.632c.014.45,0,.9.007,1.352a.531.531,0,0,1-.164.422c-.539.528-1.08,1.055-1.6,1.6-.17.177-.27.171-.431,0a9.825,9.825,0,0,0-1.095-1.1,1.634,1.634,0,0,1-.687-1.693,1.621,1.621,0,0,0-.7-1.687A.818.818,0,0,0,20.4.022c-1.06.011-2.12.02-3.179,0a1.029,1.029,0,0,0-.886.364c-.166.193-.327.493-.564.5s-.4-.3-.574-.483a1.181,1.181,0,0,0-.986-.382A17.626,17.626,0,0,1,11.944.013a1.963,1.963,0,0,0-1.908.773.771.771,0,0,0-.21.5c.008,1.059.006,2.119,0,3.179,0,.114.053.247-.061.346-.113-.026-.164-.122-.232-.191Q7.373,2.457,5.22.285A.827.827,0,0,0,4.564.022C3.674.037,2.781.066,1.893.015A1.686,1.686,0,0,0,.3.66a1.071,1.071,0,0,0-.293.708C.021,5.5.038,9.641,0,13.777a2,2,0,0,0,.758,1.814A.821.821,0,0,0,1.3,15.8c.89-.01,1.785-.055,2.671.011a1.786,1.786,0,0,0,1.692-.723.945.945,0,0,0,.256-.628c-.012-1.037-.007-2.074,0-3.111,0-.117-.04-.244.042-.355.138,0,.191.118.266.193q2.177,2.172,4.347,4.351a.78.78,0,0,0,.619.263,26.105,26.105,0,0,1,2.636.011,1.865,1.865,0,0,0,1.675-.7.991.991,0,0,0,.287-.717c-.011-2.333-.007-4.666,0-7a.57.57,0,0,1,.051-.377,1.222,1.222,0,0,1,.1.082q2.3,2.3,4.591,4.59a.5.5,0,0,1,.153.392,15.19,15.19,0,0,1-.016,1.689,1.835,1.835,0,0,0,.763,1.81.8.8,0,0,0,.538.216c.9-.011,1.807-.055,2.7.012a1.755,1.755,0,0,0,1.661-.7.923.923,0,0,0,.255-.627c-.016-.755,0-1.51-.011-2.265a.741.741,0,0,1,.244-.592q1.659-1.64,3.3-3.3c.428-.43.85-.866,1.3-1.327a.639.639,0,0,1,.079.429c0,1.679.008,3.359,0,5.038a.8.8,0,0,0,.255.625q1.288,1.268,2.562,2.551a.54.54,0,0,0,.424.156q4.667,0,9.334,0a.577.577,0,0,0,.447-.186q1.269-1.288,2.549-2.566a.573.573,0,0,0,.183-.448,12.224,12.224,0,0,1,.009-1.689,1.863,1.863,0,0,0-.775-1.84" transform="translate(0.001 0)" fill="#fff"/><path d="M352.662,380.075a1.154,1.154,0,0,0,1.04-1.758.669.669,0,0,1-.068-.9c.336-.592-.191-1.261-.955-1.286-.663-.021-1.328,0-1.991-.01-.226,0-.255.1-.253.29.008.562,0,1.125,0,1.687s0,1.147,0,1.721c0,.142,0,.273.2.27.675-.008,1.353.034,2.024-.02m.181-1.181a.373.373,0,0,1-.342.322,3.112,3.112,0,0,1-.47,0v.009a.38.38,0,0,1-.067,0c-.148-.026-.366.086-.432-.076a1.445,1.445,0,0,1-.014-.7.127.127,0,0,1,.09-.084,2.193,2.193,0,0,1,1.028.066.393.393,0,0,1,.207.456m-1.012-1.952c.166.019.337-.005.5.013.193.021.344.11.349.336s-.147.341-.352.374a2.314,2.314,0,0,1-.369,0c-.491,0-.477,0-.487-.391-.007-.268.093-.365.355-.336" transform="translate(-333.893 -358.372)" fill="#fff"/><path d="M83.685,398.5c.006.326,0,.653,0,.98.016.719-.147.613.654.624.023,0,.045,0,.068,0a.171.171,0,0,0,.207-.2,14.5,14.5,0,0,0-.054-2.023.807.807,0,0,0-.762-.734,1.162,1.162,0,0,0-.92.242c-.086.069-.139.154-.276.036a.988.988,0,0,0-1.322-.087c-.06.035-.152.145-.2.053-.165-.34-.455-.123-.681-.173-.2-.045-.277.067-.272.269.01.383,0,.766,0,1.149,0,.27,0,.541,0,.811.013.76-.126.638.66.662.251.008.3-.1.3-.321-.008-.461,0-.923.012-1.385.009-.281.138-.489.451-.478s.347.258.357.487c.017.36,0,.721.007,1.081.014.706-.132.59.632.615.251.008.3-.1.3-.319-.012-.428-.01-.856,0-1.284.008-.391.15-.578.417-.585s.409.185.417.579" transform="translate(-76.349 -378.379)" fill="#fff"/><path d="M2.389,377.682a.869.869,0,0,1-1.183-.3c-.078-.169-.931-.269-1.025-.113a.308.308,0,0,0-.011.2,1.225,1.225,0,0,0,.63.914,2.241,2.241,0,0,0,2.17-.007,1.126,1.126,0,0,0,.605-1.156,1.05,1.05,0,0,0-.7-.916,3.715,3.715,0,0,0-.773-.239,5.155,5.155,0,0,1-.614-.183.251.251,0,0,1-.181-.259.275.275,0,0,1,.183-.223.687.687,0,0,1,.886.233.263.263,0,0,0,.286.169c.135-.007.27,0,.406,0,.393,0,.458-.1.29-.463a1.442,1.442,0,0,0-1.521-.819,1.731,1.731,0,0,0-1.042.255,1.056,1.056,0,0,0-.05,1.8,2.657,2.657,0,0,0,.936.366,1.918,1.918,0,0,1,.694.25.275.275,0,0,1,.009.5" transform="translate(-0.152 -356.832)" fill="#fff"/><path d="M3.154,501.452a3.578,3.578,0,0,0-.731-.258,3.166,3.166,0,0,1-.742-.223c-.235-.12-.273-.344-.089-.48a.756.756,0,0,1,.97.228c.09.17.89.26,1,.1a.387.387,0,0,0-.014-.388,1.265,1.265,0,0,0-.769-.714,2.089,2.089,0,0,0-1.795.136,1.017,1.017,0,0,0-.552.941.954.954,0,0,0,.546.9,3.094,3.094,0,0,0,.791.287,2.772,2.772,0,0,1,.709.214.318.318,0,0,1,.047.589.812.812,0,0,1-1.142-.314c-.03-.07-.03-.155-.12-.191a2.355,2.355,0,0,0-.917.065,1.006,1.006,0,0,0,.23.783,1.172,1.172,0,0,0,.44.36,1.934,1.934,0,0,0,1.021.188,2.119,2.119,0,0,0,1.166-.26,1.138,1.138,0,0,0-.052-1.97" transform="translate(-0.317 -476)" fill="#fff"/><path d="M153.182,523.019c-.347-.017-.5.089-.56.443a12.183,12.183,0,0,1-.347,1.241,8.036,8.036,0,0,1-.493-1.419.292.292,0,0,0-.353-.261,2.6,2.6,0,0,1-.706-.015.966.966,0,0,0-.914.193c-.05.044-.156.109-.167.061-.1-.413-.417-.185-.634-.232-.243-.052-.338.055-.331.314.016.642,0,1.285.007,1.927.011.73-.153.621.678.639.2,0,.285-.063.28-.271-.01-.383-.009-.766,0-1.149.008-.4.228-.667.621-.638s.5-.1.44-.456a.285.285,0,0,1,.017-.095l.074-.016c.2.627.4,1.254.609,1.879.248.748.25.738,1.029.749a.373.373,0,0,0,.436-.3c.216-.687.459-1.366.7-2.046.189-.54.191-.519-.38-.547" transform="translate(-141.659 -498.286)" fill="#fff"/><path d="M600.06,397.97a.993.993,0,0,0-1.4-.954c-.2.064-.393.433-.666.044-.06-.086-.343-.006-.523-.02-.2-.016-.283.052-.275.264.014.394,0,.788,0,1.182v.878c0,.569,0,.552.574.574.3.012.386-.075.379-.375a5.821,5.821,0,0,1,.041-1.414.446.446,0,0,1,.5-.4c.3.026.39.232.394.5,0,.338-.005.676,0,1.013.019.785-.167.656.706.677.208,0,.277-.073.274-.275-.009-.563.011-1.127-.007-1.689" transform="translate(-569.003 -378.209)" fill="#fff"/><path d="M667.316,397.453a1.66,1.66,0,0,0-2.16.382,1.633,1.633,0,0,0,.228,2.066,1.771,1.771,0,0,0,2.186-.037,1.193,1.193,0,0,0,.278-.418c.033-.08.046-.18-.072-.17-.312.025-.635-.108-.927.163a.581.581,0,0,1-.916-.185c-.086-.181-.054-.28.165-.277.271,0,.541,0,.812,0s.541,0,.812,0c.126,0,.226-.013.222-.175a1.518,1.518,0,0,0-.628-1.349m-.38.916c-.055.1-.161.055-.247.06s-.18,0-.27,0a.863.863,0,0,1-.168,0c-.12-.024-.3.083-.347-.1-.035-.149.086-.274.2-.366a.5.5,0,0,1,.759.128c.05.082.132.172.071.278" transform="translate(-633.503 -378.46)" fill="#fff"/><path d="M355.587,521.99a1.506,1.506,0,0,0-1.679.223,1.481,1.481,0,0,0-.517,1.577,1.645,1.645,0,0,0,2.606.764,1.053,1.053,0,0,0,.291-.409c.035-.092.054-.2-.083-.194-.3.02-.611-.106-.891.161a.573.573,0,0,1-.927-.2c-.087-.2-.068-.322.2-.311s.518,0,.777,0,.541-.006.811,0c.17.005.254-.052.24-.232a1.5,1.5,0,0,0-.823-1.38m-.166.973c-.035.215-.256.079-.391.114a.562.562,0,0,1-.134,0,1.225,1.225,0,0,1-.2,0c-.113-.019-.284.073-.326-.075s.076-.277.2-.365a.5.5,0,0,1,.54-.066c.168.081.349.2.317.392" transform="translate(-336.658 -497.201)" fill="#fff"/><path d="M184.319,398.27c-.321.054-.645.1-.959.187a.786.786,0,0,0-.626.908.847.847,0,0,0,.765.773,1.394,1.394,0,0,0,.823-.12.4.4,0,0,1,.436.008,1.723,1.723,0,0,0,.761.035c.111,0,.1-.1.072-.182a4.371,4.371,0,0,1-.076-1.136c0-.275,0-.511,0-.747a.766.766,0,0,0-.589-.8,2.511,2.511,0,0,0-1.433.011.835.835,0,0,0-.608.622c-.024.1-.051.241.1.226.288-.028.626.17.853-.2.1-.169.316-.154.5-.117.15.031.289.1.286.281s-.144.226-.3.252m.3.708a.519.519,0,0,1-.545.557c-.207,0-.39-.06-.4-.309s.286-.4.751-.426c.179-.011.192,0,.2.179" transform="translate(-174.104 -378.35)" fill="#fff"/><path d="M78.77,522.247a1.515,1.515,0,0,0-1.679.482,1.543,1.543,0,0,0-.209,1.68,1.331,1.331,0,0,0,1.393.806,3.019,3.019,0,0,0,.37-.019,1.249,1.249,0,0,0,.988-.676c.04-.081.117-.236-.044-.235-.3,0-.613-.129-.889.148a.607.607,0,0,1-.913-.126.307.307,0,0,1-.054-.316c.052-.1.159-.064.244-.064q.776,0,1.553,0c.135,0,.232-.011.247-.191a1.525,1.525,0,0,0-1.008-1.487M78.8,523.3c-.032.2-.241.07-.368.1a.71.71,0,0,1-.168,0,2.074,2.074,0,0,1-.236,0c-.1-.012-.253.062-.3-.064s.061-.233.149-.317a.538.538,0,0,1,.651-.112.411.411,0,0,1,.276.391" transform="translate(-73.105 -497.526)" fill="#fff"/><path d="M434.681,398.535a1.526,1.526,0,0,0-.767.015c-.168.067-.066.306-.075.466a10.949,10.949,0,0,1-.033,1.214.483.483,0,0,1-.546.44c-.314-.019-.4-.241-.4-.522,0-.327.006-.654,0-.981-.017-.756.154-.642-.7-.653h-.034c-.146-.013-.2.058-.2.2.007.62-.018,1.241.022,1.859a.941.941,0,0,0,1.271.871,1.208,1.208,0,0,0,.447-.229c.048-.038.139-.117.159-.026.073.338.331.2.516.21.427.016.428,0,.428-.44q0-.49,0-.981c0-.406,0-.812,0-1.217,0-.085.03-.21-.087-.227" transform="translate(-411.538 -379.683)" fill="#fff"/><path d="M424.079,523.422c-.209-.04-.423-.066-.628-.122-.161-.044-.429-.073-.346-.307s.34-.161.536-.113a.3.3,0,0,1,.155.123c.215.325.537.1.8.16a.107.107,0,0,0,.128-.121.809.809,0,0,0-.358-.621.689.689,0,0,0-.205-.113,2.3,2.3,0,0,0-1.491.013.829.829,0,0,0-.59.784c0,.35.171.578.593.726.306.107.626.171.938.262.135.04.259.114.233.283s-.154.215-.291.242c-.189.037-.413.013-.48-.159-.116-.3-.329-.293-.566-.272-.149.013-.359-.085-.431.088a.563.563,0,0,0,.154.528.886.886,0,0,0,.315.248,1.654,1.654,0,0,0,.883.172,1.8,1.8,0,0,0,.794-.117.881.881,0,0,0,.607-.945.822.822,0,0,0-.757-.74" transform="translate(-402.135 -497.543)" fill="#fff"/><path d="M735.7,398.46a2.507,2.507,0,0,0-.489-.126,1.187,1.187,0,0,1-.573-.185c-.181-.131-.14-.258.041-.318s.415-.1.557.1c.233.328.556.113.834.16a.107.107,0,0,0,.116-.133.814.814,0,0,0-.419-.583.9.9,0,0,0-.215-.1,2.292,2.292,0,0,0-1.428.022.736.736,0,0,0-.565.813.726.726,0,0,0,.617.738c.271.073.551.114.823.186.148.039.341.083.31.289s-.216.236-.394.24c-.152,0-.319-.016-.389-.155a.443.443,0,0,0-.516-.238,2.094,2.094,0,0,1-.222,0c-.309-.041-.311.117-.226.339a.87.87,0,0,0,.451.523,1.917,1.917,0,0,0,1.844-.062.845.845,0,0,0,.438-.852.771.771,0,0,0-.6-.66" transform="translate(-698.897 -378.428)" fill="#fff"/><path d="M501.732,398.342c-.216-.059-.443-.076-.658-.136-.156-.043-.385-.1-.338-.3s.284-.172.461-.157a.345.345,0,0,1,.257.144c.223.3.54.1.811.141.074.011.111-.07.1-.145a.824.824,0,0,0-.407-.591.466.466,0,0,0-.092-.041,2.2,2.2,0,0,0-1.584.007.725.725,0,0,0-.521.677.759.759,0,0,0,.644.854c.3.087.616.133.914.23.233.076.272.289.082.4-.216.125-.518.176-.646-.043-.192-.326-.454-.265-.724-.266-.353,0-.411.1-.236.42a1.321,1.321,0,0,0,1.289.632,2.1,2.1,0,0,0,.634-.079.983.983,0,0,0,.752-.923c0-.431-.212-.68-.739-.823" transform="translate(-476.114 -378.368)" fill="#fff"/><path d="M798.528,398.3c-.2-.058-.422-.071-.625-.131-.171-.05-.445-.087-.368-.331.064-.2.319-.151.508-.123a.329.329,0,0,1,.22.142c.213.288.517.094.777.139a.1.1,0,0,0,.123-.124.827.827,0,0,0-.344-.56.632.632,0,0,0-.115-.07,2.118,2.118,0,0,0-1.734.026.688.688,0,0,0-.409.681c0,.471.194.694.754.839.271.07.548.122.819.193a.215.215,0,0,1,.18.216.225.225,0,0,1-.144.212c-.22.083-.5.135-.623-.07-.2-.333-.48-.248-.758-.27-.3-.023-.313.116-.227.345.173.459.616.7,1.352.711a1.7,1.7,0,0,0,.582-.08.993.993,0,0,0,.769-.912c.008-.412-.23-.691-.736-.835" transform="translate(-758.917 -378.332)" fill="#fff"/><path d="M290.352,523.969a1.023,1.023,0,0,0-.919.2.5.5,0,0,1-.5.278.487.487,0,0,1-.448-.356,1.246,1.246,0,0,1,0-.86.528.528,0,0,1,.9-.166c.148.173.852.326.918.179.129-.287-.111-.493-.254-.711a.525.525,0,0,0-.127-.11,1.617,1.617,0,0,0-1.806-.053,1.651,1.651,0,0,0-.568,1.869,1.39,1.39,0,0,0,1.421.92,1.283,1.283,0,0,0,1.389-.974c.014-.071.074-.149-.011-.217" transform="translate(-273.9 -497.476)" fill="#fff"/><path d="M284.616,379.755c-.011-.563,0-1.127,0-1.69q0-.676,0-1.352c0-.64,0-.628-.65-.633-.257,0-.327.085-.324.332.012.992,0,1.983.007,2.975.006.76-.133.645.692.667.236.006.283-.09.279-.3" transform="translate(-270.249 -358.328)" fill="#fff"/><path d="M254.011,379.677c-.015-.539,0-1.08,0-1.619q0-.708,0-1.417c0-.606,0-.589-.6-.608-.285-.009-.334.1-.331.349.012,1,0,2,0,3,0,.63,0,.615.623.627.268,0,.319-.095.313-.334" transform="translate(-241.125 -358.282)" fill="#fff"/><path d="M566.961,400.3v-.811c0-.653,0-.643-.671-.643-.241,0-.311.082-.306.313.012.631,0,1.262.006,1.892.012.8-.156.673.731.693.2,0,.248-.082.244-.262-.009-.394,0-.788,0-1.183" transform="translate(-539.268 -380.019)" fill="#fff"/><path d="M260.934,524.582c0-.646,0-.636-.645-.623-.229,0-.288.093-.281.3.012.382,0,.765,0,1.147,0,.292,0,.585,0,.877.009.644-.1.54.582.564.268.01.353-.078.346-.345-.017-.641-.006-1.282-.006-1.923" transform="translate(-247.735 -499.224)" fill="#fff"/><path d="M259.637,502.192c.486,0,.486,0,.493-.315.008-.433.009-.433-.434-.433-.1,0-.2,0-.3,0-.079,0-.147.014-.182.109-.14.384.026.636.425.636" transform="translate(-246.931 -477.775)" fill="#fff"/><path d="M566.293,375.984a.907.907,0,0,1-.135,0c-.3-.046-.392.065-.407.381-.022.449.258.345.527.352.127-.061.354.123.449-.112.156-.387-.016-.62-.434-.62" transform="translate(-539.045 -358.226)" fill="#fff"/><path d="M981.539,1.074c.134.028.062-.177.169-.21.206.289.206.289.438-.049.092.061,0,.208.152.27.1-.113.062-.244.054-.357-.011-.158.1-.4-.083-.456-.245-.071-.2.236-.309.359-.011.012-.036.012-.072.023-.035-.077-.075-.155-.108-.235-.04-.1-.089-.191-.214-.17s-.119.14-.12.239a2.614,2.614,0,0,0,0,.3c.011.1-.063.254.09.285" transform="translate(-935.115 -0.233)" fill="#fff"/><path d="M963.7.641c0,.1-.063.274.086.282s.1-.169.1-.266c0-.2-.024-.405.274-.458a.86.86,0,0,0-.762.014c.293.03.311.213.3.429" transform="translate(-917.928 -0.11)" fill="#fff"/></g><rect width="0.142" height="27.66" transform="translate(50.76 0.034)" fill="#fff"/><path d="M1164.554,34.149a1.506,1.506,0,0,0-.57-.957,1.893,1.893,0,0,0-1.089-.285,1.6,1.6,0,0,0-1.385.7,2.258,2.258,0,0,0-.329.742,3.62,3.62,0,0,0-.106.888,4.074,4.074,0,0,0,.091.863,2.286,2.286,0,0,0,.3.756,1.609,1.609,0,0,0,.57.537,1.792,1.792,0,0,0,.9.2,1.66,1.66,0,0,0,.614-.11,1.534,1.534,0,0,0,.486-.3,1.768,1.768,0,0,0,.351-.457,2.291,2.291,0,0,0,.216-.577h.519a3.281,3.281,0,0,1-.256.72,2.058,2.058,0,0,1-.442.6,2.019,2.019,0,0,1-.665.406,2.558,2.558,0,0,1-.917.15,2.236,2.236,0,0,1-1.038-.223,1.97,1.97,0,0,1-.705-.6,2.528,2.528,0,0,1-.4-.881,4.393,4.393,0,0,1-.124-1.063,3.856,3.856,0,0,1,.186-1.279,2.288,2.288,0,0,1,.515-.859,1.946,1.946,0,0,1,.775-.482,3.038,3.038,0,0,1,.972-.15,2.554,2.554,0,0,1,.749.106,1.843,1.843,0,0,1,.614.318,1.729,1.729,0,0,1,.439.523,2.2,2.2,0,0,1,.237.72Z" transform="translate(-1105.796 -30.949)" fill="#fff"/><path d="M1267.119,66.636a2.051,2.051,0,0,0,.081.581,1.4,1.4,0,0,0,.238.475,1.149,1.149,0,0,0,.4.322,1.226,1.226,0,0,0,.555.121,1.209,1.209,0,0,0,.738-.227,1.091,1.091,0,0,0,.409-.643h.49a2.374,2.374,0,0,1-.212.5,1.543,1.543,0,0,1-.329.4,1.422,1.422,0,0,1-.468.267,1.9,1.9,0,0,1-.629.1,1.834,1.834,0,0,1-.782-.154,1.474,1.474,0,0,1-.541-.42,1.774,1.774,0,0,1-.314-.629,2.844,2.844,0,0,1-.1-.778,2.483,2.483,0,0,1,.12-.782,1.992,1.992,0,0,1,.344-.64,1.594,1.594,0,0,1,.544-.431,1.644,1.644,0,0,1,.731-.157,1.51,1.51,0,0,1,1.228.537,2.362,2.362,0,0,1,.438,1.561Zm2.471-.365a1.743,1.743,0,0,0-.077-.523,1.224,1.224,0,0,0-.227-.424,1.079,1.079,0,0,0-.376-.285,1.212,1.212,0,0,0-.519-.106,1.155,1.155,0,0,0-.515.11,1.184,1.184,0,0,0-.38.292,1.467,1.467,0,0,0-.252.424,1.968,1.968,0,0,0-.124.512Z" transform="translate(-1206.863 -61.492)" fill="#fff"/><path d="M1352.568,68.426h-.439V64.639h.439v.709h.015a1.269,1.269,0,0,1,.471-.632,1.436,1.436,0,0,1,.764-.179v.475a1.281,1.281,0,0,0-.614.117,1.011,1.011,0,0,0-.384.336,1.329,1.329,0,0,0-.2.5,3.212,3.212,0,0,0-.055.6Z" transform="translate(-1288.306 -61.491)" fill="#fff"/><path d="M1391.622,49.26q-.08.015-.212.051a1.091,1.091,0,0,1-.292.037.7.7,0,0,1-.5-.164.8.8,0,0,1-.172-.588v-2.77h-.533V45.46h.533V44.407h.439V45.46h.709v.365h-.709V48.42c0,.093,0,.173.007.241a.4.4,0,0,0,.044.168.209.209,0,0,0,.113.1.626.626,0,0,0,.216.029,1.124,1.124,0,0,0,.179-.015c.061-.01.121-.022.179-.037Z" transform="translate(-1324.306 -42.311)" fill="#fff"/><path d="M1436.677,35.425h.483v.651h-.483Zm.022,1.477h.438v3.786h-.438Z" transform="translate(-1368.864 -33.753)" fill="#fff"/><path d="M1456.806,35.2v-.365h.563v-.6a1.237,1.237,0,0,1,.182-.716.7.7,0,0,1,.621-.263c.068,0,.132,0,.19.007s.117.012.176.022v.4a1.1,1.1,0,0,0-.263-.037.478.478,0,0,0-.263.062.364.364,0,0,0-.139.164.742.742,0,0,0-.055.23q-.011.128-.011.26v.468h.731V35.2h-.731v3.421h-.438V35.2Z" transform="translate(-1388.042 -31.688)" fill="#fff"/><path d="M1503.571,35.425h.482v.651h-.482Zm.022,1.477h.438v3.786h-.438Z" transform="translate(-1432.6 -33.753)" fill="#fff"/><path d="M1528.039,66.636a2.055,2.055,0,0,0,.08.581,1.4,1.4,0,0,0,.238.475,1.147,1.147,0,0,0,.4.322,1.226,1.226,0,0,0,.555.121,1.207,1.207,0,0,0,.738-.227,1.093,1.093,0,0,0,.41-.643h.49a2.38,2.38,0,0,1-.212.5,1.548,1.548,0,0,1-.329.4,1.425,1.425,0,0,1-.468.267,1.9,1.9,0,0,1-.629.1,1.834,1.834,0,0,1-.782-.154,1.476,1.476,0,0,1-.541-.42,1.774,1.774,0,0,1-.314-.629,2.844,2.844,0,0,1-.1-.778,2.476,2.476,0,0,1,.121-.782,1.989,1.989,0,0,1,.344-.64,1.6,1.6,0,0,1,.544-.431,1.644,1.644,0,0,1,.731-.157,1.51,1.51,0,0,1,1.228.537,2.362,2.362,0,0,1,.438,1.561Zm2.471-.365a1.735,1.735,0,0,0-.077-.523,1.225,1.225,0,0,0-.226-.424,1.083,1.083,0,0,0-.377-.285,1.213,1.213,0,0,0-.519-.106,1.155,1.155,0,0,0-.515.11,1.185,1.185,0,0,0-.38.292,1.467,1.467,0,0,0-.252.424,1.963,1.963,0,0,0-.124.512Z" transform="translate(-1455.467 -61.492)" fill="#fff"/><path d="M1613.148,35.425h.438v5.263h-.438v-.665h-.015a1.185,1.185,0,0,1-.245.333,1.489,1.489,0,0,1-.329.238,1.764,1.764,0,0,1-.369.146,1.434,1.434,0,0,1-.373.051,1.805,1.805,0,0,1-.782-.153,1.456,1.456,0,0,1-.53-.42,1.715,1.715,0,0,1-.3-.632,3.092,3.092,0,0,1-.095-.782,2.8,2.8,0,0,1,.1-.76,1.882,1.882,0,0,1,.311-.64,1.537,1.537,0,0,1,.526-.439,1.61,1.61,0,0,1,.749-.164,1.746,1.746,0,0,1,.771.179,1.358,1.358,0,0,1,.581.53Zm0,3.355a2.089,2.089,0,0,0-.088-.61,1.578,1.578,0,0,0-.252-.5,1.246,1.246,0,0,0-.4-.344,1.117,1.117,0,0,0-.537-.128,1.221,1.221,0,0,0-.592.135,1.166,1.166,0,0,0-.409.369,1.593,1.593,0,0,0-.234.545,2.458,2.458,0,0,0-.058.669,1.862,1.862,0,0,0,.1.632,1.346,1.346,0,0,0,.274.464,1.17,1.17,0,0,0,.409.289,1.3,1.3,0,0,0,.512.1,1.179,1.179,0,0,0,.548-.124,1.155,1.155,0,0,0,.4-.34,1.566,1.566,0,0,0,.245-.512,2.338,2.338,0,0,0,.084-.64" transform="translate(-1534.108 -33.753)" fill="#fff"/><path d="M1159.933,225.809h.015l1.147-4.561h.512l-1.381,5.263h-.548l-1.221-4.649h-.015l-1.221,4.649h-.548l-1.36-5.263h.5l1.133,4.561h.015l1.22-4.561h.556Z" transform="translate(-1100.781 -210.805)" fill="#fff"/><path d="M1293.182,254.352a1.973,1.973,0,0,1-.683-.132,1.531,1.531,0,0,1-.555-.373,1.789,1.789,0,0,1-.376-.621,2.482,2.482,0,0,1-.139-.87,2.675,2.675,0,0,1,.11-.778,1.841,1.841,0,0,1,.329-.632,1.562,1.562,0,0,1,.548-.428,1.763,1.763,0,0,1,.767-.157,1.781,1.781,0,0,1,.775.157,1.58,1.58,0,0,1,.548.424,1.751,1.751,0,0,1,.325.632,2.8,2.8,0,0,1,.106.782,2.538,2.538,0,0,1-.124.819,1.842,1.842,0,0,1-.355.629,1.562,1.562,0,0,1-.556.406,1.774,1.774,0,0,1-.72.143m1.286-2a2.593,2.593,0,0,0-.073-.629,1.49,1.49,0,0,0-.227-.508,1.09,1.09,0,0,0-.395-.34,1.281,1.281,0,0,0-.592-.124,1.2,1.2,0,0,0-.588.135,1.153,1.153,0,0,0-.4.358,1.571,1.571,0,0,0-.227.512,2.413,2.413,0,0,0-.073.6,2.353,2.353,0,0,0,.084.647,1.514,1.514,0,0,0,.245.508,1.1,1.1,0,0,0,.4.329,1.258,1.258,0,0,0,.555.117,1.2,1.2,0,0,0,.588-.135,1.138,1.138,0,0,0,.4-.362,1.623,1.623,0,0,0,.227-.512,2.381,2.381,0,0,0,.073-.592" transform="translate(-1230.471 -238.544)" fill="#fff"/><path d="M1376.725,254.25h-.439v-3.786h.439v.57h.015a1.156,1.156,0,0,1,.482-.5,1.41,1.41,0,0,1,.687-.172,1.477,1.477,0,0,1,.446.059,1.008,1.008,0,0,1,.311.157.908.908,0,0,1,.212.23,1.59,1.59,0,0,1,.143.285,1.274,1.274,0,0,1,.508-.552,1.458,1.458,0,0,1,.727-.179,1.274,1.274,0,0,1,.618.128.926.926,0,0,1,.354.336,1.3,1.3,0,0,1,.165.479,3.8,3.8,0,0,1,.04.555v2.39h-.438v-2.617a1.069,1.069,0,0,0-.172-.643.749.749,0,0,0-.64-.234,1.059,1.059,0,0,0-.855.431.849.849,0,0,0-.121.223,1.875,1.875,0,0,0-.077.267,2.176,2.176,0,0,0-.04.278q-.011.139-.011.256v2.039h-.439v-2.617a1.068,1.068,0,0,0-.172-.643.748.748,0,0,0-.64-.234,1.059,1.059,0,0,0-.855.431.841.841,0,0,0-.12.223,1.829,1.829,0,0,0-.077.267,2.177,2.177,0,0,0-.04.278q-.011.139-.011.256Z" transform="translate(-1311.324 -238.544)" fill="#fff"/><path d="M1499.156,252.042c.083-.01.182-.024.3-.044a1.11,1.11,0,0,0,.281-.08.233.233,0,0,0,.135-.172,1.093,1.093,0,0,0,.026-.223.748.748,0,0,0-.216-.552,1.006,1.006,0,0,0-.727-.216,2.02,2.02,0,0,0-.416.04.909.909,0,0,0-.333.139.766.766,0,0,0-.234.263,1.111,1.111,0,0,0-.121.413h-.446a1.358,1.358,0,0,1,.153-.574,1.169,1.169,0,0,1,.34-.387,1.413,1.413,0,0,1,.483-.219,2.361,2.361,0,0,1,.581-.069,2.246,2.246,0,0,1,.537.062,1.247,1.247,0,0,1,.439.2.918.918,0,0,1,.292.362,1.308,1.308,0,0,1,.106.556V253.6q0,.256.091.325t.369-.033v.344l-.15.044a.683.683,0,0,1-.193.029.878.878,0,0,1-.2-.022.34.34,0,0,1-.176-.07.431.431,0,0,1-.106-.132.547.547,0,0,1-.055-.168,1.222,1.222,0,0,1-.015-.194,1.9,1.9,0,0,1-.636.468,1.873,1.873,0,0,1-.775.161,1.737,1.737,0,0,1-.479-.066,1.159,1.159,0,0,1-.406-.2,1.017,1.017,0,0,1-.278-.34,1.043,1.043,0,0,1-.1-.479q0-.965,1.323-1.14Zm.738.219a2.151,2.151,0,0,1-.563.154q-.285.037-.57.058a1.606,1.606,0,0,0-.785.227.649.649,0,0,0-.282.577.625.625,0,0,0,.07.3.637.637,0,0,0,.183.212.768.768,0,0,0,.263.124,1.162,1.162,0,0,0,.3.04,1.991,1.991,0,0,0,.512-.066,1.378,1.378,0,0,0,.442-.2,1.027,1.027,0,0,0,.311-.344.993.993,0,0,0,.117-.493Z" transform="translate(-1426.554 -238.544)" fill="#fff"/><path d="M1582.523,254.25h-.438v-3.786h.438v.526a2.786,2.786,0,0,1,.545-.453,1.252,1.252,0,0,1,.676-.175,1.726,1.726,0,0,1,.651.121,1.112,1.112,0,0,1,.5.42.949.949,0,0,1,.164.42,3.862,3.862,0,0,1,.026.45v2.478h-.439v-2.471a1.129,1.129,0,0,0-.227-.767.962.962,0,0,0-.753-.256,1.069,1.069,0,0,0-.373.062,1.176,1.176,0,0,0-.3.164,1.1,1.1,0,0,0-.23.234,1.077,1.077,0,0,0-.146.278,1.393,1.393,0,0,0-.081.351q-.015.168-.015.365Z" transform="translate(-1507.408 -238.544)" fill="#fff"/><rect width="1.849" height="0.453" transform="translate(78.258 13.579)" fill="#fff"/><path d="M1706.276,221.084a3.619,3.619,0,0,1,.157-1.082,2.611,2.611,0,0,1,.464-.881,2.21,2.21,0,0,1,.76-.6,2.373,2.373,0,0,1,1.045-.219,2.537,2.537,0,0,1,1.078.216,2.184,2.184,0,0,1,.775.592,2.565,2.565,0,0,1,.468.884,3.648,3.648,0,0,1,.157,1.085,3.55,3.55,0,0,1-.157,1.071,2.607,2.607,0,0,1-.464.877,2.187,2.187,0,0,1-.767.6,2.707,2.707,0,0,1-2.135,0,2.187,2.187,0,0,1-.767-.6,2.549,2.549,0,0,1-.46-.877,3.628,3.628,0,0,1-.154-1.071m2.456,2.339a1.871,1.871,0,0,0,.881-.194,1.757,1.757,0,0,0,.607-.515,2.2,2.2,0,0,0,.351-.745,3.41,3.41,0,0,0,.113-.884,3.313,3.313,0,0,0-.135-.983,2.137,2.137,0,0,0-.391-.742,1.679,1.679,0,0,0-.621-.468,2.014,2.014,0,0,0-.819-.161,1.827,1.827,0,0,0-.874.2,1.774,1.774,0,0,0-.606.523,2.238,2.238,0,0,0-.351.749,3.545,3.545,0,0,0,0,1.776,2.2,2.2,0,0,0,.351.746,1.717,1.717,0,0,0,.606.512,1.919,1.919,0,0,0,.888.19" transform="translate(-1625.737 -208.002)" fill="#fff"/><path d="M1819.221,255.73l.994-3.2h.446l-1.228,3.786h-.468l-.826-3.18h-.015l-.84,3.18h-.526l-1.155-3.786h.438l.979,3.231.877-3.231h.49Z" transform="translate(-1729.903 -240.609)" fill="#fff"/><path d="M1931.4,254.25h-.439v-3.786h.439v.526a2.778,2.778,0,0,1,.544-.453,1.253,1.253,0,0,1,.676-.175,1.728,1.728,0,0,1,.651.121,1.11,1.11,0,0,1,.5.42.945.945,0,0,1,.165.42,3.809,3.809,0,0,1,.026.45v2.478h-.438v-2.471a1.129,1.129,0,0,0-.227-.767.962.962,0,0,0-.753-.256,1.071,1.071,0,0,0-.373.062,1.174,1.174,0,0,0-.3.164,1.106,1.106,0,0,0-.23.234,1.084,1.084,0,0,0-.146.278,1.393,1.393,0,0,0-.081.351q-.015.168-.014.365Z" transform="translate(-1839.82 -238.544)" fill="#fff"/><path d="M2008.085,252.459a2.06,2.06,0,0,0,.08.581,1.4,1.4,0,0,0,.238.475,1.148,1.148,0,0,0,.4.322,1.227,1.227,0,0,0,.556.121,1.208,1.208,0,0,0,.738-.227,1.091,1.091,0,0,0,.409-.643h.49a2.355,2.355,0,0,1-.212.5,1.543,1.543,0,0,1-.329.4,1.418,1.418,0,0,1-.468.267,1.9,1.9,0,0,1-.629.1,1.835,1.835,0,0,1-.782-.153,1.471,1.471,0,0,1-.541-.42,1.768,1.768,0,0,1-.314-.629,2.839,2.839,0,0,1-.1-.778,2.483,2.483,0,0,1,.12-.782,1.987,1.987,0,0,1,.344-.64,1.6,1.6,0,0,1,.544-.431,1.645,1.645,0,0,1,.731-.157,1.509,1.509,0,0,1,1.228.537,2.361,2.361,0,0,1,.439,1.561Zm2.47-.366a1.735,1.735,0,0,0-.077-.523,1.226,1.226,0,0,0-.227-.424,1.081,1.081,0,0,0-.376-.285,1.214,1.214,0,0,0-.519-.106,1.153,1.153,0,0,0-.515.11,1.183,1.183,0,0,0-.38.292,1.467,1.467,0,0,0-.252.424,1.963,1.963,0,0,0-.124.512Z" transform="translate(-1912.854 -238.544)" fill="#fff"/><path d="M2093.193,221.249h.439v5.263h-.439v-.665h-.014a1.182,1.182,0,0,1-.245.333,1.477,1.477,0,0,1-.329.238,1.778,1.778,0,0,1-.369.146,1.432,1.432,0,0,1-.373.051,1.805,1.805,0,0,1-.782-.154,1.452,1.452,0,0,1-.53-.42,1.707,1.707,0,0,1-.3-.632,3.081,3.081,0,0,1-.1-.782,2.792,2.792,0,0,1,.1-.76,1.886,1.886,0,0,1,.311-.64,1.536,1.536,0,0,1,.527-.439,1.609,1.609,0,0,1,.749-.164,1.746,1.746,0,0,1,.771.179,1.357,1.357,0,0,1,.581.53Zm0,3.355a2.085,2.085,0,0,0-.088-.61,1.568,1.568,0,0,0-.252-.5,1.242,1.242,0,0,0-.4-.344,1.118,1.118,0,0,0-.538-.128,1.222,1.222,0,0,0-.592.135,1.167,1.167,0,0,0-.409.369,1.6,1.6,0,0,0-.234.545,2.458,2.458,0,0,0-.058.669,1.865,1.865,0,0,0,.1.632,1.353,1.353,0,0,0,.274.464,1.175,1.175,0,0,0,.41.289,1.3,1.3,0,0,0,.511.1,1.178,1.178,0,0,0,.548-.124,1.151,1.151,0,0,0,.4-.34,1.561,1.561,0,0,0,.245-.512,2.328,2.328,0,0,0,.084-.64" transform="translate(-1991.494 -210.806)" fill="#fff"/><path d="M1165.689,412.334v-5.263h1.9a2.872,2.872,0,0,1,.79.1,1.445,1.445,0,0,1,.537.27,1.03,1.03,0,0,1,.3.42,1.473,1.473,0,0,1,.1.537,1.4,1.4,0,0,1-.073.479,1.059,1.059,0,0,1-.19.336.883.883,0,0,1-.267.212,1.115,1.115,0,0,1-.311.106v.015a1.189,1.189,0,0,1,.815.431,1.407,1.407,0,0,1,.267.877,1.7,1.7,0,0,1-.128.694,1.187,1.187,0,0,1-.355.46,1.421,1.421,0,0,1-.545.252,2.936,2.936,0,0,1-.691.077Zm.5-2.938h1.257a2.732,2.732,0,0,0,.651-.066,1.1,1.1,0,0,0,.424-.194.714.714,0,0,0,.23-.314,1.218,1.218,0,0,0,.07-.428.99.99,0,0,0-.08-.42.638.638,0,0,0-.256-.278,1.306,1.306,0,0,0-.457-.154,4.247,4.247,0,0,0-.691-.048h-1.148Zm0,2.514h1.265a6.029,6.029,0,0,0,.713-.037,1.318,1.318,0,0,0,.5-.15.713.713,0,0,0,.3-.322,1.3,1.3,0,0,0,.1-.552,1.107,1.107,0,0,0-.11-.53.756.756,0,0,0-.314-.311,1.466,1.466,0,0,0-.49-.15,4.6,4.6,0,0,0-.636-.04h-1.323Z" transform="translate(-1110.667 -387.857)" fill="#fff"/><path d="M1264.88,438.352h.439v3.786h-.439v-.526q-.087.1-.2.212a1.5,1.5,0,0,1-.252.2,1.441,1.441,0,0,1-.333.153,1.414,1.414,0,0,1-.438.062,1.671,1.671,0,0,1-.636-.106,1.04,1.04,0,0,1-.413-.3,1.175,1.175,0,0,1-.227-.442,2.069,2.069,0,0,1-.069-.552v-2.492h.438v2.485a1.105,1.105,0,0,0,.227.749.944.944,0,0,0,.746.26,1.087,1.087,0,0,0,.486-.106,1.017,1.017,0,0,0,.362-.3,1.417,1.417,0,0,0,.227-.453,1.978,1.978,0,0,0,.08-.578Z" transform="translate(-1202.731 -417.661)" fill="#fff"/><path d="M1339.568,438.888a1.109,1.109,0,0,0,.369.691,1.249,1.249,0,0,0,.764.2,1.318,1.318,0,0,0,.417-.059.837.837,0,0,0,.289-.157.679.679,0,0,0,.172-.223.611.611,0,0,0,.058-.263.484.484,0,0,0-.179-.413,1.354,1.354,0,0,0-.449-.212,5.769,5.769,0,0,0-.585-.132,2.852,2.852,0,0,1-.585-.164,1.168,1.168,0,0,1-.45-.314.849.849,0,0,1-.179-.577.987.987,0,0,1,.347-.778,1.448,1.448,0,0,1,.983-.3,1.678,1.678,0,0,1,1,.274,1.253,1.253,0,0,1,.464.917h-.446a.821.821,0,0,0-.332-.618,1.241,1.241,0,0,0-.691-.179.985.985,0,0,0-.636.179.58.58,0,0,0-.219.472.461.461,0,0,0,.179.391,1.457,1.457,0,0,0,.45.219q.271.084.585.15a2.885,2.885,0,0,1,.585.186,1.283,1.283,0,0,1,.449.325.837.837,0,0,1,.179.57.962.962,0,0,1-.117.479,1.018,1.018,0,0,1-.322.347,1.5,1.5,0,0,1-.486.208,2.581,2.581,0,0,1-.618.069,1.669,1.669,0,0,1-.6-.1,1.293,1.293,0,0,1-.442-.274,1.26,1.26,0,0,1-.285-.409,1.444,1.444,0,0,1-.117-.5Z" transform="translate(-1275.913 -415.595)" fill="#fff"/><path d="M1416.238,407.072h.482v.651h-.482Zm.022,1.476h.438v3.786h-.438Z" transform="translate(-1349.389 -387.858)" fill="#fff"/><path d="M1444.859,440.072h-.439v-3.786h.439v.526a2.783,2.783,0,0,1,.545-.453,1.252,1.252,0,0,1,.676-.175,1.727,1.727,0,0,1,.651.121,1.112,1.112,0,0,1,.5.42.944.944,0,0,1,.165.42,3.835,3.835,0,0,1,.026.45v2.478h-.438V437.6a1.129,1.129,0,0,0-.227-.768.963.963,0,0,0-.753-.256,1.069,1.069,0,0,0-.373.062,1.179,1.179,0,0,0-.3.164,1.1,1.1,0,0,0-.23.234,1.083,1.083,0,0,0-.146.278,1.4,1.4,0,0,0-.081.351q-.015.168-.015.365Z" transform="translate(-1376.241 -415.595)" fill="#fff"/><path d="M1521.54,438.282a2.051,2.051,0,0,0,.08.581,1.4,1.4,0,0,0,.238.475,1.148,1.148,0,0,0,.4.322,1.227,1.227,0,0,0,.556.121,1.209,1.209,0,0,0,.738-.227,1.092,1.092,0,0,0,.409-.643h.49a2.358,2.358,0,0,1-.212.5,1.54,1.54,0,0,1-.329.4,1.423,1.423,0,0,1-.468.267,1.9,1.9,0,0,1-.629.1,1.835,1.835,0,0,1-.782-.153,1.472,1.472,0,0,1-.541-.42,1.77,1.77,0,0,1-.314-.629,2.839,2.839,0,0,1-.1-.778,2.48,2.48,0,0,1,.121-.782,1.989,1.989,0,0,1,.344-.639,1.594,1.594,0,0,1,.544-.431,1.645,1.645,0,0,1,.731-.157,1.51,1.51,0,0,1,1.228.537,2.36,2.36,0,0,1,.438,1.561Zm2.47-.365a1.743,1.743,0,0,0-.076-.523,1.23,1.23,0,0,0-.227-.424,1.082,1.082,0,0,0-.376-.285,1.215,1.215,0,0,0-.519-.106,1.154,1.154,0,0,0-.515.11,1.186,1.186,0,0,0-.38.292,1.473,1.473,0,0,0-.252.424,1.963,1.963,0,0,0-.124.512Z" transform="translate(-1449.275 -415.595)" fill="#fff"/><path d="M1602.506,438.888a1.114,1.114,0,0,0,.369.691,1.25,1.25,0,0,0,.764.2,1.32,1.32,0,0,0,.417-.059.837.837,0,0,0,.289-.157.68.68,0,0,0,.172-.223.615.615,0,0,0,.058-.263.485.485,0,0,0-.179-.413,1.353,1.353,0,0,0-.45-.212,5.781,5.781,0,0,0-.585-.132,2.856,2.856,0,0,1-.585-.164,1.167,1.167,0,0,1-.449-.314.849.849,0,0,1-.179-.577.987.987,0,0,1,.347-.778,1.447,1.447,0,0,1,.983-.3,1.677,1.677,0,0,1,1,.274,1.252,1.252,0,0,1,.464.917h-.446a.82.82,0,0,0-.333-.618,1.238,1.238,0,0,0-.691-.179.983.983,0,0,0-.636.179.579.579,0,0,0-.219.472.46.46,0,0,0,.179.391,1.455,1.455,0,0,0,.45.219q.27.084.585.15a2.884,2.884,0,0,1,.585.186,1.283,1.283,0,0,1,.45.325.839.839,0,0,1,.179.57.962.962,0,0,1-.117.479,1.017,1.017,0,0,1-.322.347,1.5,1.5,0,0,1-.486.208,2.581,2.581,0,0,1-.618.069,1.669,1.669,0,0,1-.6-.1,1.293,1.293,0,0,1-.442-.274,1.262,1.262,0,0,1-.285-.409,1.442,1.442,0,0,1-.117-.5Z" transform="translate(-1526.44 -415.595)" fill="#fff"/><path d="M1674.668,438.888a1.113,1.113,0,0,0,.369.691,1.251,1.251,0,0,0,.764.2,1.316,1.316,0,0,0,.417-.059.832.832,0,0,0,.289-.157.676.676,0,0,0,.172-.223.61.61,0,0,0,.059-.263.485.485,0,0,0-.179-.413,1.355,1.355,0,0,0-.449-.212,5.786,5.786,0,0,0-.585-.132,2.856,2.856,0,0,1-.585-.164,1.169,1.169,0,0,1-.45-.314.849.849,0,0,1-.179-.577.987.987,0,0,1,.347-.778,1.448,1.448,0,0,1,.983-.3,1.678,1.678,0,0,1,1,.274,1.254,1.254,0,0,1,.464.917h-.446a.82.82,0,0,0-.332-.618,1.24,1.24,0,0,0-.691-.179.984.984,0,0,0-.636.179.579.579,0,0,0-.219.472.46.46,0,0,0,.179.391,1.453,1.453,0,0,0,.449.219q.27.084.585.15a2.885,2.885,0,0,1,.585.186,1.284,1.284,0,0,1,.45.325.839.839,0,0,1,.179.57.962.962,0,0,1-.117.479,1.018,1.018,0,0,1-.322.347,1.5,1.5,0,0,1-.486.208,2.581,2.581,0,0,1-.618.069,1.669,1.669,0,0,1-.6-.1,1.291,1.291,0,0,1-.442-.274,1.258,1.258,0,0,1-.285-.409,1.439,1.439,0,0,1-.117-.5Z" transform="translate(-1595.196 -415.595)" fill="#fff"/><path d="M1789.587,412.335v-5.263h3.5v.424h-3v1.9h2.712v.424h-2.712v2.091h3.077v.424Z" transform="translate(-1705.116 -387.857)" fill="#fff"/><path d="M1877.98,440.072h-.439v-3.786h.439v.526a2.776,2.776,0,0,1,.545-.453,1.252,1.252,0,0,1,.676-.175,1.729,1.729,0,0,1,.651.121,1.112,1.112,0,0,1,.5.42.945.945,0,0,1,.164.42,3.808,3.808,0,0,1,.026.45v2.478h-.439V437.6a1.129,1.129,0,0,0-.227-.768.963.963,0,0,0-.753-.256,1.069,1.069,0,0,0-.373.062,1.172,1.172,0,0,0-.3.164,1.1,1.1,0,0,0-.23.234,1.083,1.083,0,0,0-.146.278,1.392,1.392,0,0,0-.081.351q-.015.168-.014.365Z" transform="translate(-1788.919 -415.595)" fill="#fff"/><path d="M1952.033,420.906c-.053.01-.124.027-.212.051a1.1,1.1,0,0,1-.292.037.7.7,0,0,1-.5-.165.8.8,0,0,1-.172-.588v-2.77h-.533v-.365h.533v-1.053h.439v1.053H1952v.365h-.709v2.595q0,.139.007.241a.4.4,0,0,0,.044.168.21.21,0,0,0,.113.1.629.629,0,0,0,.216.029,1.13,1.13,0,0,0,.179-.015c.061-.01.121-.022.179-.037Z" transform="translate(-1858.264 -396.415)" fill="#fff"/><path d="M1992.447,438.282a2.059,2.059,0,0,0,.08.581,1.4,1.4,0,0,0,.238.475,1.149,1.149,0,0,0,.4.322,1.227,1.227,0,0,0,.556.121,1.209,1.209,0,0,0,.738-.227,1.091,1.091,0,0,0,.409-.643h.49a2.364,2.364,0,0,1-.212.5,1.54,1.54,0,0,1-.329.4,1.423,1.423,0,0,1-.468.267,1.9,1.9,0,0,1-.629.1,1.835,1.835,0,0,1-.782-.153,1.475,1.475,0,0,1-.541-.42,1.77,1.77,0,0,1-.314-.629,2.843,2.843,0,0,1-.1-.778,2.477,2.477,0,0,1,.121-.782,1.984,1.984,0,0,1,.344-.639,1.6,1.6,0,0,1,.544-.431,1.645,1.645,0,0,1,.731-.157,1.51,1.51,0,0,1,1.228.537,2.362,2.362,0,0,1,.438,1.561Zm2.47-.365a1.735,1.735,0,0,0-.077-.523,1.218,1.218,0,0,0-.227-.424,1.078,1.078,0,0,0-.376-.285,1.212,1.212,0,0,0-.519-.106,1.153,1.153,0,0,0-.515.11,1.184,1.184,0,0,0-.38.292,1.462,1.462,0,0,0-.252.424,1.953,1.953,0,0,0-.124.512Z" transform="translate(-1897.955 -415.595)" fill="#fff"/><path d="M2077.9,440.072h-.439v-3.786h.439V437h.014a1.27,1.27,0,0,1,.471-.632,1.438,1.438,0,0,1,.764-.179v.475a1.284,1.284,0,0,0-.614.117,1.014,1.014,0,0,0-.384.336,1.343,1.343,0,0,0-.2.5,3.243,3.243,0,0,0-.054.6Z" transform="translate(-1979.398 -415.595)" fill="#fff"/><path d="M2124.815,441.564h-.439v-5.277h.439v.665h.014a1.3,1.3,0,0,1,.245-.329,1.435,1.435,0,0,1,.329-.241,1.766,1.766,0,0,1,.369-.146,1.43,1.43,0,0,1,.373-.051,1.808,1.808,0,0,1,.782.153,1.461,1.461,0,0,1,.53.42,1.713,1.713,0,0,1,.3.632,3.093,3.093,0,0,1,.095.782,2.8,2.8,0,0,1-.1.76,1.886,1.886,0,0,1-.311.64,1.536,1.536,0,0,1-.526.439,1.611,1.611,0,0,1-.749.164,1.749,1.749,0,0,1-.772-.179,1.356,1.356,0,0,1-.581-.53Zm0-3.37a2.092,2.092,0,0,0,.087.61,1.587,1.587,0,0,0,.252.5,1.235,1.235,0,0,0,.4.344,1.115,1.115,0,0,0,.537.128,1.226,1.226,0,0,0,.588-.135,1.155,1.155,0,0,0,.413-.369,1.6,1.6,0,0,0,.234-.544,2.477,2.477,0,0,0,.058-.669,1.866,1.866,0,0,0-.1-.632,1.354,1.354,0,0,0-.274-.464,1.173,1.173,0,0,0-.409-.289,1.3,1.3,0,0,0-.511-.1,1.18,1.18,0,0,0-.548.124,1.153,1.153,0,0,0-.4.34,1.543,1.543,0,0,0-.245.512,2.311,2.311,0,0,0-.084.64" transform="translate(-2024.102 -415.595)" fill="#fff"/><path d="M2213.543,440.072h-.439v-3.786h.439V437h.015a1.27,1.27,0,0,1,.471-.632,1.436,1.436,0,0,1,.764-.179v.475a1.281,1.281,0,0,0-.614.117,1.01,1.01,0,0,0-.384.336,1.335,1.335,0,0,0-.2.5,3.222,3.222,0,0,0-.055.6Z" transform="translate(-2108.642 -415.595)" fill="#fff"/><path d="M2259.869,407.072h.482v.651h-.482Zm.022,1.476h.438v3.786h-.438Z" transform="translate(-2153.199 -387.858)" fill="#fff"/><path d="M2284.471,438.888a1.113,1.113,0,0,0,.37.691,1.248,1.248,0,0,0,.764.2,1.318,1.318,0,0,0,.417-.059.834.834,0,0,0,.289-.157.676.676,0,0,0,.172-.223.61.61,0,0,0,.059-.263.485.485,0,0,0-.179-.413,1.359,1.359,0,0,0-.449-.212,5.766,5.766,0,0,0-.585-.132,2.868,2.868,0,0,1-.585-.164,1.168,1.168,0,0,1-.449-.314.847.847,0,0,1-.179-.577.986.986,0,0,1,.347-.778,1.446,1.446,0,0,1,.983-.3,1.678,1.678,0,0,1,1,.274,1.253,1.253,0,0,1,.464.917h-.446a.821.821,0,0,0-.333-.618,1.239,1.239,0,0,0-.691-.179.984.984,0,0,0-.636.179.579.579,0,0,0-.219.472.46.46,0,0,0,.179.391,1.455,1.455,0,0,0,.45.219q.27.084.585.15a2.887,2.887,0,0,1,.585.186,1.287,1.287,0,0,1,.449.325.836.836,0,0,1,.179.57.962.962,0,0,1-.117.479,1.018,1.018,0,0,1-.322.347,1.5,1.5,0,0,1-.486.208,2.578,2.578,0,0,1-.618.069,1.667,1.667,0,0,1-.6-.1,1.3,1.3,0,0,1-.442-.274,1.265,1.265,0,0,1-.285-.409,1.439,1.439,0,0,1-.117-.5Z" transform="translate(-2176.216 -415.595)" fill="#fff"/><path d="M2356.5,438.282a2.068,2.068,0,0,0,.08.581,1.4,1.4,0,0,0,.238.475,1.147,1.147,0,0,0,.4.322,1.227,1.227,0,0,0,.555.121,1.208,1.208,0,0,0,.738-.227,1.092,1.092,0,0,0,.41-.643h.49a2.37,2.37,0,0,1-.212.5,1.547,1.547,0,0,1-.329.4,1.426,1.426,0,0,1-.468.267,1.9,1.9,0,0,1-.629.1,1.835,1.835,0,0,1-.782-.153,1.473,1.473,0,0,1-.541-.42,1.77,1.77,0,0,1-.314-.629,2.853,2.853,0,0,1-.1-.778,2.484,2.484,0,0,1,.121-.782,1.988,1.988,0,0,1,.343-.639,1.6,1.6,0,0,1,.545-.431,1.644,1.644,0,0,1,.731-.157,1.509,1.509,0,0,1,1.228.537,2.36,2.36,0,0,1,.438,1.561Zm2.471-.365a1.735,1.735,0,0,0-.077-.523,1.23,1.23,0,0,0-.227-.424,1.078,1.078,0,0,0-.376-.285,1.216,1.216,0,0,0-.519-.106,1.155,1.155,0,0,0-.515.11,1.184,1.184,0,0,0-.38.292,1.46,1.46,0,0,0-.252.424,1.963,1.963,0,0,0-.124.512Z" transform="translate(-2244.823 -415.595)" fill="#fff"/></svg>