<svg xmlns="http://www.w3.org/2000/svg" width="131.319" height="27.729" viewBox="0 0 131.319 27.729"><path d="M178.888,2.558c.371,0,.372,0,.372.379,0,1.757,0,3.514,0,5.271,0,.216.065.289.284.285q.933-.018,1.866,0c.227,0,.309-.063.305-.3-.013-.664-.01-1.329,0-1.993.009-.822-.132-.73.742-.736.342,0,.358.016.358.353,0,.8.006,1.591,0,2.386,0,.217.071.289.289.285q.946-.017,1.892,0c.221,0,.283-.071.282-.286q-.009-3.566,0-7.133c0-.216-.068-.293-.286-.29-.6.01-1.209,0-1.814,0-.355,0-.36.006-.361.373,0,.664,0,1.329,0,1.993,0,.2-.055.312-.284.29a2.741,2.741,0,0,0-.525,0c-.241.024-.3-.089-.3-.3.008-.612,0-1.224,0-1.836,0-.552.049-.516-.5-.516h-5.074V.794h-5.205c-.35,0-.351,0-.351.347q0,2.649,0,5.3a1.336,1.336,0,0,1-.044.387.55.55,0,0,1-.568.375.557.557,0,0,1-.471-.522c-.005-.087,0-.175,0-.262,0-1.774,0-3.549,0-5.323,0-.227-.064-.308-.3-.3-.622.013-1.245.017-1.866,0-.272-.008-.339.087-.337.346.011,1.573,0,3.147.008,4.72a5.235,5.235,0,0,0,.062.782,2.17,2.17,0,0,0,1.9,1.992,8.316,8.316,0,0,0,1.806.051,2.161,2.161,0,0,0,2.162-1.768,4.3,4.3,0,0,0,.134-.981c.018-1,.008-2.01.01-3.016,0-.355,0-.355.344-.356.368,0,.737.017,1.1-.006.277-.017.334.088.333.345-.01,1.765,0,3.531-.01,5.3,0,.228.062.305.3.3.578-.015,1.157,0,1.735-.005.51,0,.456.05.457-.443,0-1.722.005-3.444,0-5.166,0-.254.08-.337.332-.326.411.017.823,0,1.235,0" transform="translate(-113.034 -0.531)" fill="#272c44"/><path d="M65.643,7.963c.208,0,.275-.064.271-.27-.01-.629.005-1.259-.008-1.888,0-.233.083-.306.305-.3q.762.013,1.524,0a2.133,2.133,0,0,0,1.9-1.148c.042-.072.082-.144.123-.217l.085.021a3.037,3.037,0,0,0,0,.307c.066.65.09,1.309.215,1.948a2,2,0,0,0,1.652,1.661A4.6,4.6,0,0,0,72.81,8.2a7.442,7.442,0,0,0,1.585-.172A2,2,0,0,0,75.846,6.27a12.3,12.3,0,0,0,.035-4.224,2.11,2.11,0,0,0-1.67-1.9A5.824,5.824,0,0,0,71.866.1a2.079,2.079,0,0,0-1.841,1.786,1.589,1.589,0,0,1-.1.242,1.423,1.423,0,0,1-.087-.169A2.282,2.282,0,0,0,67.533.278C66.264.231,64.992.264,63.722.257c-.194,0-.26.078-.26.266q0,3.592,0,7.184c0,.195.072.258.264.255.639-.008,1.279-.01,1.919,0m6.728-5.892a.577.577,0,0,1,1.151.074c.01.654,0,1.309,0,1.963,0,.637,0,1.274,0,1.911a.6.6,0,0,1-.387.621.551.551,0,0,1-.713-.314,1.3,1.3,0,0,1-.071-.434c-.006-1.187,0-2.373,0-3.56a1.492,1.492,0,0,1,.02-.26m-6.453.789c0-.305.005-.61,0-.915,0-.166.062-.227.231-.234A1.072,1.072,0,0,1,67.3,3.067a1.9,1.9,0,0,1-.163.467.9.9,0,0,1-1.064.512c-.065-.015-.136-.138-.148-.219a3.522,3.522,0,0,1-.007-.5V2.86" transform="translate(-42.956 -0.001)" fill="#272c44"/><path d="M281.289,8.231c-.008-.664-.013-1.329,0-1.993a2.076,2.076,0,0,1,.118-.662c.535-1.451,1.084-2.9,1.628-4.344.048-.127.09-.257.14-.4a.679.679,0,0,0-.152-.045c-.683,0-1.367,0-2.05,0-.175,0-.212.113-.242.251q-.206.933-.421,1.865c-.073.317-.151.633-.227.95l-.08,0c-.028-.094-.062-.186-.082-.281-.176-.828-.36-1.655-.517-2.486-.046-.245-.155-.309-.386-.306-.745.011-1.49,0-2.235,0q-3.8,0-7.6,0c-.2,0-.354,0-.354.279q.012,3.58,0,7.159c0,.21.078.27.279.267.622-.01,1.245-.014,1.867,0,.246.006.311-.075.31-.313-.009-1.608,0-3.217,0-4.825,0-.192,0-.385,0-.577,0-.154.058-.223.217-.221.482,0,.964-.005,1.446.01.069,0,.159.1.194.177a.652.652,0,0,1,.011.259c0,1.722,0,3.444,0,5.166,0,.254.076.331.329.324.622-.016,1.244-.013,1.866,0,.212,0,.276-.071.269-.273-.012-.358,0-.717,0-1.075,0-1.425,0-2.85,0-4.274,0-.238.073-.332.317-.316.262.017.526-.008.788.007.208.012.281-.062.273-.269-.013-.32,0-.64,0-.96l.094-.025c.042.091.089.18.125.273.492,1.3.992,2.595,1.466,3.9a3.083,3.083,0,0,1,.16.917c.024.611.013,1.224,0,1.836,0,.193.064.26.259.258q.972-.014,1.945,0c.2,0,.258-.068.256-.259" transform="translate(-181.97 -0.53)" fill="#272c44"/><path d="M11.775.782q-.986.011-1.972,0c-.189,0-.265.06-.261.258.01.542.006,1.084,0,1.626,0,.242.073.587-.053.7-.146.131-.477.047-.725.074s-.3-.073-.3-.3c.009-.673-.008-1.346.008-2.019C8.479.862,8.4.776,8.13.779c-1.3.012-2.593.005-3.89.005S1.646.791.35.779C.081.776,0,.864.009,1.126c.019.384.016.769,0,1.153C0,2.5.088,2.566.3,2.558c.359-.014.719.012,1.077-.009.269-.016.341.076.339.34-.011,1.748-.006,3.5-.005,5.244,0,.351,0,.352.363.352H3.836c.356,0,.357,0,.357-.36,0-1.757,0-3.514,0-5.27,0-.225.063-.314.3-.3.385.016.771,0,1.156,0s.375,0,.375.378c0,1.757,0,3.514,0,5.27,0,.214.059.291.281.287q.946-.019,1.892,0c.222,0,.287-.074.284-.288q-.016-1,0-1.993c.012-.851-.154-.733.779-.747.218,0,.307.066.3.3-.014.821,0,1.643-.009,2.465,0,.192.056.262.253.259q.985-.014,1.972,0c.191,0,.261-.055.26-.253q-.008-3.592,0-7.184c0-.186-.053-.271-.252-.269" transform="translate(-0.006 -0.527)" fill="#272c44"/><path d="M104.628,8.493c.631-.009,1.262-.016,1.892,0,.264.007.346-.066.341-.336-.017-.865-.01-1.73,0-2.595,0-.089.043-.23.1-.257a.682.682,0,0,1,.926.542c.035.294.04.592.06.888.032.479.062.957.1,1.436.013.159.037.324.259.324q1.116,0,2.233-.008c.021,0,.042-.023.059-.034a3.847,3.847,0,0,1-.106-.516c-.045-.644-.078-1.29-.11-1.934a1.307,1.307,0,0,0-.979-1.276c-.08-.025-.159-.053-.238-.079,0-.021,0-.043,0-.064.072-.026.142-.059.216-.079a1.267,1.267,0,0,0,.928-.914,2.869,2.869,0,0,0,.11-.771c0-.213.076-.272.277-.266.385.011.771,0,1.156,0s.388,0,.388.4c0,1.739,0,3.478,0,5.217,0,.255.078.331.329.324.586-.016,1.174,0,1.76-.005.364,0,.364,0,.364-.353,0-1.756,0-3.513,0-5.269,0-.243.077-.323.317-.313.376.016.753,0,1.13.007.18,0,.251-.053.246-.239-.011-.384,0-.769,0-1.154s0-.38-.372-.38h-4.257c-.342,0-.684.007-1.025,0-.194,0-.265.07-.258.263.011.305,0,.612,0,.918a1.955,1.955,0,0,1-.027.232.752.752,0,0,1-.167-.311A1.379,1.379,0,0,0,109.38.96,2.88,2.88,0,0,0,108.536.8c-1.3-.018-2.593-.008-3.889-.016-.2,0-.278.058-.278.269q.01,3.591,0,7.183c0,.2.066.257.258.254m2.23-6.175c0-.287.239-.143.355-.184.685.015,1.056.353,1.017.907a.982.982,0,0,1-1.179.9.274.274,0,0,1-.187-.182c-.016-.479-.014-.959-.006-1.438" transform="translate(-70.646 -0.533)" fill="#272c44"/><path d="M247.715,8.495c.446-.021.893,0,1.34-.007.243,0,.587.07.7-.057.132-.146.071-.474.073-.723.006-.708,0-1.416.009-2.123,0-.1.071-.26.142-.28a.692.692,0,0,1,.928.672c.025.348.035.7.057,1.046.024.392.052.784.079,1.175.016.222.121.313.358.307.63-.015,1.262-.005,1.892-.005h.3c-.046-.286-.107-.541-.124-.8-.037-.549-.049-1.1-.075-1.649a1.361,1.361,0,0,0-1.047-1.344c-.069-.021-.136-.049-.267-.1.142-.049.213-.078.286-.1a1.307,1.307,0,0,0,.979-1.056,3.466,3.466,0,0,0,.055-.832A1.7,1.7,0,0,0,251.549.8c-1.3-.02-2.593,0-3.89-.014-.223,0-.3.084-.281.3.012.174,0,.349,0,.524,0,2.185,0,4.369-.005,6.554,0,.268.076.349.342.337m2.127-6.15c.007-.075.1-.195.168-.2a1.905,1.905,0,0,1,.573.031.771.771,0,0,1,.644.782.963.963,0,0,1-.664.939c-.033.01-.068.015-.1.023-.553.118-.629.057-.629-.5V3.025h0c0-.227-.014-.456.008-.681" transform="translate(-167.444 -0.531)" fill="#272c44"/><path d="M227.947,8.124a8.527,8.527,0,0,0,1.569.043A2.1,2.1,0,0,0,231.762,6.3,11.787,11.787,0,0,0,231.8,2,2.09,2.09,0,0,0,230.15.145,5.849,5.849,0,0,0,227.8.093a2.07,2.07,0,0,0-1.864,1.881c-.1.689-.129,1.387-.187,2.049.057.718.073,1.4.171,2.072a2.131,2.131,0,0,0,2.023,2.029m.352-5.962a.548.548,0,0,1,.466-.6.533.533,0,0,1,.67.521c.029.679.008,1.359.008,2.039h.029c0,.558,0,1.117,0,1.675a1.994,1.994,0,0,1-.046.441.549.549,0,0,1-.575.437.555.555,0,0,1-.539-.482,2.061,2.061,0,0,1-.032-.365c0-1.221.006-2.442.021-3.663" transform="translate(-152.81 0)" fill="#272c44"/><path d="M147.415,8.479c.062,0,.158-.123.176-.2.056-.246.085-.5.12-.749.024-.173.1-.259.292-.252.324.013.648.011.972,0a.238.238,0,0,1,.28.235c.034.233.09.464.105.7s.122.289.337.285c.648-.011,1.3,0,1.945,0,.082,0,.163-.014.246-.021a.708.708,0,0,0,0-.11q-.812-3.668-1.622-7.336c-.044-.2-.157-.236-.337-.235-.92.006-1.839,0-2.759,0-.389,0-.391,0-.479.387q-.71,3.113-1.418,6.228c-.078.345-.146.693-.216,1.027.045.029.06.046.075.046.762,0,1.523.013,2.285,0m1.041-6.158a.36.36,0,0,1,.06-.107l.061.013q.13.981.259,1.963c.06.466.108.933.181,1.4.033.209-.04.269-.232.261-.209-.007-.421.013-.628-.012-.067-.008-.182-.127-.174-.182.148-1.112.311-2.223.473-3.333" transform="translate(-98.186 -0.533)" fill="#272c44"/><path d="M39.446,4.654c0,1.189,0,2.377,0,3.566,0,.178.029.272.241.271q2.339-.01,4.679,0c.182,0,.249-.059.245-.242-.01-.376,0-.752,0-1.127,0-.392,0-.392-.381-.392-.675,0-1.349,0-2.024,0-.2,0-.287-.065-.276-.274a6.413,6.413,0,0,0,0-.76c-.015-.236.06-.325.309-.319.613.015,1.227,0,1.84.009.236.005.308-.078.3-.3-.015-.332-.016-.665,0-1,.012-.238-.084-.3-.308-.292-.622.013-1.244,0-1.866.007-.207,0-.284-.071-.271-.276a4.168,4.168,0,0,0,0-.629c-.024-.259.06-.354.334-.347.692.018,1.385,0,2.077.01.2,0,.282-.052.275-.265q-.022-.6,0-1.206c.008-.225-.061-.308-.3-.307Q42.027.8,39.74.783c-.232,0-.3.078-.3.3.01,1.188,0,2.377,0,3.566" transform="translate(-26.698 -0.53)" fill="#272c44"/><path d="M90.073,40.2c.251,0,.279-.153.328-.323q.885-3.084,1.771-6.168c.02-.073.028-.149.041-.224-.616-.1-.619-.1-.773.466q-.65,2.374-1.3,4.748c-.027.1-.073.2-.137.366-.075-.174-.121-.267-.155-.363q-.9-2.5-1.8-5.005a.317.317,0,0,0-.334-.251c-.243-.012-.31.116-.381.3q-.91,2.443-1.833,4.882c-.04.107-.1.206-.148.31a1.143,1.143,0,0,1-.193-.422q-.6-2.266-1.193-4.533c-.152-.573-.156-.572-.789-.511a1.368,1.368,0,0,0,.024.193c.565,2.071,1.137,4.141,1.694,6.215.064.238.161.323.411.317.217-.005.28-.114.343-.283q.929-2.492,1.866-4.981c.037-.1.088-.193.163-.353.068.155.111.238.142.325.6,1.658,1.208,3.315,1.8,4.978a.405.405,0,0,0,.454.315" transform="translate(-56.301 -22.632)" fill="#272c44"/><path d="M275.1,33.5c-.62-.074-.62-.074-.774.485q-.649,2.361-1.3,4.722c-.028.1-.072.2-.108.3a.7.7,0,0,1-.194-.3q-.887-2.465-1.771-4.932c-.062-.173-.105-.307-.345-.309s-.311.107-.383.3q-.934,2.5-1.883,5a2.123,2.123,0,0,1-.152.258c-.064-.215-.11-.354-.147-.5-.424-1.6-.845-3.207-1.273-4.809-.023-.088-.1-.215-.164-.227a3.084,3.084,0,0,0-.557-.011c.025.12.037.2.058.27.147.539.3,1.077.443,1.616q.624,2.286,1.249,4.572a.428.428,0,0,0,.147.255.417.417,0,0,0,.581-.244q.917-2.441,1.832-4.882c.051-.135.111-.267.2-.472.07.153.115.234.146.319.611,1.674,1.227,3.345,1.822,5.024.089.253.232.269.448.279.242.011.266-.145.312-.306q.887-3.1,1.775-6.193a1.961,1.961,0,0,0,.038-.219" transform="translate(-180.086 -22.651)" fill="#272c44"/><path d="M51.605,33.432a.374.374,0,0,0-.577.333q0,2.386,0,4.771c0,.117-.018.235-.034.429-.109-.115-.172-.169-.221-.234q-.99-1.291-1.976-2.584t-1.961-2.564a.642.642,0,0,0-.683-.151c-.087.058-.114.251-.115.383-.007,2,0,4-.01,6,0,.274.094.338.351.337s.33-.064.328-.323c-.011-1.643-.006-3.286-.006-4.929V34.6l.079-.026c.06.071.123.14.178.214l3.8,5.056c.047.063.092.128.144.187a.8.8,0,0,0,.685.1.528.528,0,0,0,.1-.364c.006-1.713,0-3.426,0-5.138,0-.332,0-.664,0-1a.264.264,0,0,0-.081-.2" transform="translate(-31.154 -22.591)" fill="#272c44"/><path d="M230.189,39.868q0-2.438,0-4.876c0-.115.02-.23.039-.427.119.142.187.216.248.3q1.025,1.362,2.048,2.727.913,1.217,1.826,2.434a.619.619,0,0,0,.7.168c.089-.049.121-.261.121-.4.007-2,0-4,.012-6,0-.3-.127-.314-.363-.319s-.311.071-.31.313c.01,1.625.006,3.25,0,4.875,0,.1-.013.194-.02.291l-.067.02c-.1-.119-.2-.234-.29-.355-1.238-1.618-2.479-3.234-3.706-4.86a.658.658,0,0,0-.591-.285c-.26,0-.322.085-.32.332.011,1.249.005,2.5.005,3.748,0,.8,0,1.59,0,2.385,0,.087.018.216.075.254a.374.374,0,0,0,.583-.319" transform="translate(-155.361 -22.654)" fill="#272c44"/><path d="M2.708,39.939a2.819,2.819,0,0,0,2.844-1.261,4.1,4.1,0,0,0,.287-4.238,2.919,2.919,0,0,0-4.4-1.052A3.85,3.85,0,0,0,0,36.4,12.106,12.106,0,0,0,.286,37.86a2.8,2.8,0,0,0,2.423,2.079M1.178,34.7A2.107,2.107,0,0,1,3.311,33.38a2.144,2.144,0,0,1,2.06,1.778,9.349,9.349,0,0,1,.164,1.014A3.508,3.508,0,0,1,4.6,38.8a2.14,2.14,0,0,1-3.38-.518A3.914,3.914,0,0,1,1.178,34.7" transform="translate(0 -22.197)" fill="#272c44"/><path d="M143.108,34.984a2.792,2.792,0,0,0-2.26-2.094,2.843,2.843,0,0,0-3.071,1.293,4.1,4.1,0,0,0-.293,4.056,2.926,2.926,0,0,0,4.675.984,3.931,3.931,0,0,0,1.216-2.86,12.339,12.339,0,0,0-.267-1.38m-1.021,3.308a2.087,2.087,0,0,1-2.044,1.124,2.021,2.021,0,0,1-1.91-1.433,13.515,13.515,0,0,1-.353-1.544l.073-.016a3.49,3.49,0,0,1,.547-1.99,2.1,2.1,0,0,1,1.94-1.035,2.03,2.03,0,0,1,1.948,1.386,3.949,3.949,0,0,1-.2,3.507" transform="translate(-92.792 -22.222)" fill="#272c44"/><path d="M162.741,37.186c.6.026.846.327.85.94,0,.384-.016.77.007,1.153a4.368,4.368,0,0,0,.137.767.258.258,0,0,0,.171.164c.211.021.425.008.653.008a2.329,2.329,0,0,1-.279-1.353c0-.357-.023-.715-.037-1.072a.834.834,0,0,0-.57-.8c-.118-.047-.236-.1-.409-.167a6.161,6.161,0,0,0,.561-.362,1.715,1.715,0,0,0-1.185-2.974c-.946-.008-1.892,0-2.838-.007-.216,0-.265.077-.264.276.008,1.014,0,2.027,0,3.04,0,1.048.006,2.1,0,3.145,0,.219.069.307.285.28a.657.657,0,0,1,.157,0c.178.02.246-.04.238-.233-.016-.454-.008-.909-.006-1.363q0-.616.01-1.231c0-.117.013-.226.182-.225.779.006,1.56-.018,2.338.016m-1.252-.576c-.332,0-.665,0-1,0-.177,0-.278-.05-.277-.25.005-.69,0-1.379,0-2.069,0-.19.083-.258.271-.257.639.007,1.278-.013,1.916.007a1.26,1.26,0,0,1,1.235,1.714,1.176,1.176,0,0,1-1.074.824c-.122.011-.244.023-.366.026-.236,0-.473,0-.709,0Z" transform="translate(-107.989 -22.663)" fill="#272c44"/><path d="M338.693,38.126c0,.367-.015.735.006,1.1a4.828,4.828,0,0,0,.128.8.284.284,0,0,0,.183.185,6.226,6.226,0,0,0,.682.009,2.226,2.226,0,0,1-.311-1.328c0-.375-.019-.75-.037-1.124A.81.81,0,0,0,338.8,37l-.45-.184.339-.19a1.4,1.4,0,0,0,.744-.967,1.708,1.708,0,0,0-1.755-2.172c-.911-.014-1.821.006-2.732-.008-.248,0-.308.077-.307.313.008,2.035,0,4.07,0,6.106,0,.338.016.343.447.324.155-.007.226-.063.221-.218,0-.113,0-.227,0-.341,0-.733,0-1.467,0-2.2,0-.131-.03-.295.2-.293.77,0,1.542-.016,2.311.013.618.023.868.322.872.944m-.981-1.559c-.724.046-1.453.028-2.18.04-.178,0-.222-.1-.22-.25,0-.349,0-.7,0-1.048s0-.682,0-1.023c0-.174.07-.252.251-.25.657.005,1.315-.019,1.971.009a1.251,1.251,0,0,1,1.213,1.691,1.089,1.089,0,0,1-1.035.831" transform="translate(-226.513 -22.661)" fill="#272c44"/><path d="M357.363,36.25a10.886,10.886,0,0,0-1.1-.262c-.537-.117-1.091-.18-1.611-.349a.971.971,0,0,1-.6-1.415,1.17,1.17,0,0,1,.7-.629,3.15,3.15,0,0,1,1.68-.145,1.5,1.5,0,0,1,1.283.985c.125.377.116.373.511.363.164,0,.224-.063.2-.221a1.933,1.933,0,0,0-.486-1.055,2.328,2.328,0,0,0-1.561-.655,3.834,3.834,0,0,0-2.2.333,1.661,1.661,0,0,0-.909,1.622,1.428,1.428,0,0,0,1.093,1.435c.391.119.8.187,1.2.275.478.1.969.165,1.432.315a1.181,1.181,0,0,1,.42,2.092,1.963,1.963,0,0,1-1.2.477c-1.013.078-2.16-.177-2.361-1.457-.045-.287-.333-.126-.51-.137-.04,0-.14.166-.128.243a1.976,1.976,0,0,0,1.244,1.657,10.647,10.647,0,0,0,1.332.343l.018-.073a3.114,3.114,0,0,0,2.023-.6,1.86,1.86,0,0,0,.689-1.8,1.563,1.563,0,0,0-1.167-1.347" transform="translate(-239.093 -22.227)" fill="#272c44"/><path d="M179.543,40.207c.184,0,.345.018.336-.259-.018-.542-.015-1.084,0-1.626a.682.682,0,0,1,.154-.392c.278-.326.591-.622.869-.947.166-.193.255-.155.4.027.754.965,1.518,1.922,2.28,2.881a.9.9,0,0,0,1.087.255c-.056-.072-.108-.14-.163-.207q-1.394-1.707-2.792-3.412c-.124-.15-.144-.253.005-.4.215-.205.41-.431.614-.647l1.9-2.014a3.67,3.67,0,0,1-.464,0A.807.807,0,0,0,183,33.8c-.919,1.021-1.858,2.023-2.791,3.031-.078.085-.17.157-.307.283-.013-.174-.027-.274-.027-.374,0-1.005-.009-2.01,0-3.015,0-.28-.156-.253-.337-.257s-.331-.01-.33.262q.015,3.108,0,6.215c0,.273.143.265.331.263" transform="translate(-121.307 -22.646)" fill="#272c44"/><path d="M209.835,41.033c-.21-.268-.408-.541-.629-.795a.385.385,0,0,1-.046-.507,10.5,10.5,0,0,0,.413-1.057c-.523-.107-.547-.09-.685.333-.052.16-.123.315-.193.49a.754.754,0,0,1-.127-.091c-.453-.577-.908-1.154-1.349-1.74-.034-.045.009-.192.062-.248.2-.206.445-.373.626-.593a1.244,1.244,0,0,0-.614-2.043,2.149,2.149,0,0,0-.653-.01,1.166,1.166,0,0,0-1.047,1.46,3.1,3.1,0,0,0,.478.941c.125.186.116.264-.059.389a3.464,3.464,0,0,0-.529.468,1.883,1.883,0,0,0,.266,2.829,2.267,2.267,0,0,0,2.721-.231c.055-.051.114-.1.2-.171.273.428.565.8,1.166.576m-3.379-5.587a.69.69,0,0,1,.785-.1.64.64,0,0,1,.39.553,1.032,1.032,0,0,1-.423.83c-.456.4-.539.384-.853-.133a.811.811,0,0,1,.1-1.152m1.718,4.724a1.772,1.772,0,0,1-1.292.52,1.374,1.374,0,0,1-1.171-.793,1.255,1.255,0,0,1,.182-1.421,5.9,5.9,0,0,1,.53-.505c.119-.112.208-.076.3.043q.734.924,1.478,1.841c.1.126.069.212-.029.316" transform="translate(-138.737 -23.523)" fill="#272c44"/><path d="M318.008,40.225c1.218-.008,2.435-.01,3.653,0,.252,0,.309-.09.312-.321s-.094-.292-.313-.29c-.972.009-1.945,0-2.917.009-.256,0-.363-.066-.358-.337.014-.681.011-1.363,0-2.045,0-.248.081-.337.336-.333.823.013,1.647,0,2.471.009.239,0,.339-.045.339-.313s-.1-.3-.327-.3c-.832.009-1.665,0-2.5.008-.245,0-.324-.09-.32-.322.009-.524.013-1.049,0-1.573-.007-.261.084-.349.35-.345.981.013,1.962,0,2.943.01.242,0,.3-.091.294-.309,0-.2-.046-.3-.28-.3q-1.853.016-3.706,0c-.216,0-.265.076-.264.276.008,1.022,0,2.045,0,3.067,0,1.04.006,2.08,0,3.119,0,.222.073.283.287.281" transform="translate(-215.062 -22.663)" fill="#272c44"/><path d="M255.55,40.224c.248,0,.311-.081.312-.316s-.075-.3-.3-.3c-.972.011-1.944,0-2.916,0-.37,0-.371,0-.372-.357q0-1,0-1.992c0-.353,0-.356.347-.356.823,0,1.647-.008,2.47,0,.236,0,.3-.074.3-.3s-.039-.316-.288-.312c-.84.014-1.682,0-2.522.009-.222,0-.314-.063-.309-.3q.02-.812,0-1.625c-.007-.242.077-.318.317-.315.99.01,1.979,0,2.969.01.25,0,.308-.083.311-.316s-.088-.291-.309-.289c-1.209.009-2.418.012-3.626,0-.263,0-.321.087-.319.331.012,1.013,0,2.027,0,3.04s.007,2.045-.005,3.066c0,.246.079.311.316.309q1.813-.015,3.626,0" transform="translate(-170.31 -22.661)" fill="#272c44"/><path d="M378.073,39.922c0-.216-.045-.311-.29-.308-.982.013-1.963.006-2.944.005-.344,0-.348-.005-.349-.356,0-.673.008-1.346,0-2.019,0-.248.072-.339.329-.335.832.013,1.665,0,2.5.01.244,0,.291-.09.292-.308s-.058-.308-.3-.3c-.832.013-1.665,0-2.5.008-.233,0-.331-.064-.324-.312q.022-.8,0-1.6c-.007-.256.087-.33.335-.327.982.011,1.963,0,2.945.01.251,0,.307-.083.31-.316s-.087-.291-.308-.289q-1.814.014-3.628,0c-.242,0-.316.068-.313.31.012,1.014,0,2.028,0,3.042,0,1.031.006,2.063,0,3.094,0,.229.066.3.3.3q1.827-.016,3.654,0c.238,0,.3-.08.3-.3" transform="translate(-253.038 -22.662)" fill="#272c44"/><path d="M72.315,39.9c.007-.216-.067-.287-.286-.285-1,.01-2,0-3,.008-.231,0-.307-.08-.3-.306.01-.69,0-1.38,0-2.071,0-.321.014-.332.348-.333.824,0,1.647-.008,2.47,0,.236,0,.3-.08.3-.3s-.055-.312-.3-.308c-.832.013-1.665,0-2.5.009-.255,0-.336-.088-.33-.335q.021-.786,0-1.573c-.006-.249.077-.335.331-.332.99.012,1.98,0,2.969.01.249,0,.288-.1.287-.312s-.046-.3-.278-.293q-1.839.016-3.679,0c-.214,0-.289.058-.286.279.01,1.031,0,2.062,0,3.093s0,2.062,0,3.093c0,.2.046.279.263.278,1.235-.009,2.47-.011,3.705,0,.264,0,.267-.131.273-.326" transform="translate(-46.078 -22.663)" fill="#272c44"/><path d="M22.872,36.909c.823.01,1.646,0,2.469.009.247,0,.319-.084.322-.317s-.092-.3-.313-.294c-.84.01-1.681,0-2.522.006-.2,0-.278-.068-.274-.275.011-.55.015-1.1,0-1.651-.007-.247.081-.314.317-.312,1,.01,2,0,2.995.01.258,0,.274-.114.277-.317s-.055-.29-.279-.288q-1.852.014-3.7,0c-.234,0-.3.07-.3.3.011,1.022,0,2.044,0,3.066s.01,2.062-.007,3.092c0,.276.125.3.334.286.192-.009.377.041.37-.278-.02-.908,0-1.817-.012-2.725,0-.248.086-.313.319-.311" transform="translate(-14.797 -22.662)" fill="#272c44"/><path d="M124.859,33.443a.55.55,0,0,0-.617.348c-.548.955-1.121,1.9-1.687,2.84-.07.117-.151.227-.25.375-.076-.112-.131-.187-.178-.267q-.866-1.453-1.731-2.906a.686.686,0,0,0-.972-.336c.028.055.052.11.083.161.764,1.274,1.534,2.545,2.289,3.825a1.229,1.229,0,0,1,.158.563c.019.628.017,1.258,0,1.887-.006.284.172.247.347.248s.328.023.321-.243c-.015-.655-.012-1.311,0-1.965a.922.922,0,0,1,.124-.44c.708-1.175,1.428-2.343,2.144-3.514.108-.176.214-.353.346-.573a2.745,2.745,0,0,1-.382,0" transform="translate(-80.836 -22.623)" fill="#272c44"/><path d="M393.787,33.468a.533.533,0,0,0-.6.332c-.543.948-1.112,1.88-1.673,2.818-.079.131-.167.256-.275.42-.083-.127-.143-.211-.195-.3-.6-1.006-1.2-2.014-1.8-3.017-.058-.1-.152-.22-.247-.237a4.029,4.029,0,0,0-.67-.011c.062.117.091.18.127.239.765,1.273,1.535,2.544,2.292,3.822a1.109,1.109,0,0,1,.144.514c.017.637.016,1.276,0,1.913-.006.312.207.231.377.244s.3-.012.291-.247c-.015-.638-.016-1.276,0-1.913a1.154,1.154,0,0,1,.151-.536c.6-1.006,1.218-2,1.828-3,.2-.332.4-.666.631-1.04a2.855,2.855,0,0,1-.386,0" transform="translate(-262.854 -22.648)" fill="#272c44"/><path d="M302.863,40.413a1.68,1.68,0,0,0,1.7-1.455,3.242,3.242,0,0,0,.08-.647c.01-.742,0-1.484,0-2.227h.005c0-.768-.013-1.537.006-2.305.007-.285-.124-.3-.347-.3s-.322.047-.319.3c.012,1.4.016,2.795,0,4.191a5.1,5.1,0,0,1-.16,1.08.973.973,0,0,1-.565.654,1.308,1.308,0,0,1-1.933-1.044c-.052-.4-.168-.487-.563-.389a.216.216,0,0,0-.13.153,1.729,1.729,0,0,0,1.287,1.932,3.194,3.194,0,0,0,.936.058" transform="translate(-203.496 -22.659)" fill="#272c44"/><path d="M2.651,69.143a.914.914,0,0,1,.727.28,1.211,1.211,0,0,1,.225.467h.9a1.544,1.544,0,0,0-.3-.8,1.808,1.808,0,0,0-1.588-.712,1.8,1.8,0,0,0-1.337.532,2.8,2.8,0,0,0-.073,3.376,1.857,1.857,0,0,0,1.459.6A1.752,1.752,0,0,0,3.9,72.437a1.931,1.931,0,0,0,.6-1.144H3.6a1.342,1.342,0,0,1-.227.5.869.869,0,0,1-.721.309.946.946,0,0,1-.761-.36,1.669,1.669,0,0,1-.3-1.084,1.9,1.9,0,0,1,.283-1.119.9.9,0,0,1,.774-.4" transform="translate(-0.457 -46.282)" fill="#272c44"/><path d="M16.373,72.453a1.255,1.255,0,0,0-.525-.47,1.668,1.668,0,0,0-.715-.149,1.432,1.432,0,0,0-1.087.44,1.767,1.767,0,0,0-.419,1.267,1.578,1.578,0,0,0,.464,1.272,1.615,1.615,0,0,0,1.071.391,1.443,1.443,0,0,0,1.144-.464,1.053,1.053,0,0,0,.295-.575h-.849a.691.691,0,0,1-.155.219.6.6,0,0,1-.417.146.707.707,0,0,1-.414-.12.79.79,0,0,1-.3-.671h2.177a4.287,4.287,0,0,0-.027-.63,1.605,1.605,0,0,0-.242-.657m-1.888.738a.9.9,0,0,1,.2-.49.565.565,0,0,1,.448-.181.62.62,0,0,1,.445.171.724.724,0,0,1,.2.5Z" transform="translate(-9.224 -48.624)" fill="#272c44"/><path d="M26.4,71.861a.914.914,0,0,0-.607.2,1.757,1.757,0,0,0-.336.435v-.554h-.794v3.181H25.5V73.6a1.267,1.267,0,0,1,.1-.566.69.69,0,0,1,.674-.327l.1,0c.041,0,.088.006.14.012v-.852l-.072,0-.039,0" transform="translate(-16.694 -48.642)" fill="#272c44"/><path d="M32.144,69.441h-.823v.887h-.444v.593h.444v1.958a.608.608,0,0,0,.14.44,1.056,1.056,0,0,0,.806.2l.394-.015v-.621l-.083,0-.08,0a.545.545,0,0,1-.3-.048.378.378,0,0,1-.049-.244V70.921h.517v-.593h-.517Z" transform="translate(-20.9 -47.004)" fill="#272c44"/><rect width="0.843" height="3.181" transform="translate(12.306 23.295)" fill="#272c44"/><rect width="0.843" height="0.768" transform="translate(12.306 22.148)" fill="#272c44"/><path d="M43.47,69.418a.266.266,0,0,1,.063-.171.272.272,0,0,1,.228-.073q.165,0,.235.013V68.51L43.82,68.5c-.043,0-.09,0-.143,0q-.692,0-.873.286a1.076,1.076,0,0,0-.172.7v.2h-.455v.586h.464v2.566h.828V70.273h.546v-.586H43.47Z" transform="translate(-28.549 -46.362)" fill="#272c44"/><rect width="0.843" height="0.768" transform="translate(15.957 22.148)" fill="#272c44"/><rect width="0.843" height="3.181" transform="translate(15.957 23.295)" fill="#272c44"/><path d="M56.458,72.453a1.253,1.253,0,0,0-.526-.47,1.667,1.667,0,0,0-.715-.149,1.433,1.433,0,0,0-1.087.44,1.768,1.768,0,0,0-.418,1.267,1.578,1.578,0,0,0,.463,1.272,1.614,1.614,0,0,0,1.072.391,1.444,1.444,0,0,0,1.144-.464,1.057,1.057,0,0,0,.295-.575h-.849a.691.691,0,0,1-.154.219.6.6,0,0,1-.418.146.706.706,0,0,1-.414-.12.79.79,0,0,1-.3-.671h2.177a4.2,4.2,0,0,0-.027-.63,1.6,1.6,0,0,0-.242-.657m-1.888.738a.9.9,0,0,1,.2-.49.565.565,0,0,1,.448-.181.62.62,0,0,1,.445.171.725.725,0,0,1,.2.5Z" transform="translate(-36.357 -48.624)" fill="#272c44"/><path d="M66.4,70.163a1.008,1.008,0,0,0-.365-.352,1.03,1.03,0,0,0-.514-.127,1.22,1.22,0,0,0-1,.467,1.991,1.991,0,0,0-.375,1.281,1.732,1.732,0,0,0,.381,1.157,1.181,1.181,0,0,0,.938.45,1.139,1.139,0,0,0,.566-.128,1.175,1.175,0,0,0,.406-.412v.441h.808v-4.3H66.4Zm-.161,1.914a.614.614,0,0,1-.537.263.582.582,0,0,1-.525-.266,1.251,1.251,0,0,1-.175-.7,1.28,1.28,0,0,1,.171-.684.585.585,0,0,1,.535-.276.635.635,0,0,1,.42.152,1.042,1.042,0,0,1,.295.835,1.158,1.158,0,0,1-.184.68" transform="translate(-43.418 -46.466)" fill="#272c44"/><path d="M84.26,71.117l-.131.659L84,71.091l-.511-2.463h-.948l-.485,2.478-.125.671-.123-.686-.569-2.463h-.955l1.22,4.3h.835l.519-2.515.152-.832.152.832.519,2.515h.858l1.211-4.3h-.913Z" transform="translate(-54.342 -46.453)" fill="#272c44"/><path d="M99.366,71.78a1.469,1.469,0,0,0-1.223.505,1.976,1.976,0,0,0,0,2.392,1.752,1.752,0,0,0,2.446,0,1.976,1.976,0,0,0,0-2.392,1.469,1.469,0,0,0-1.223-.505m.557,2.437a.736.736,0,0,1-1.122,0,1.48,1.48,0,0,1,0-1.475.738.738,0,0,1,1.122,0,1.489,1.489,0,0,1,0,1.475" transform="translate(-66.159 -48.587)" fill="#272c44"/><path d="M113.954,72.247a.93.93,0,0,0-.371-.286,1.1,1.1,0,0,0-.415-.082,1.238,1.238,0,0,0-.572.132,1.056,1.056,0,0,0-.406.411.934.934,0,0,0-.275-.382,1.154,1.154,0,0,0-1.217.026,1.333,1.333,0,0,0-.292.353v-.464H109.6V75.13h.844V73.216a.89.89,0,0,1,.067-.391.491.491,0,0,1,.479-.231.407.407,0,0,1,.412.231,1.062,1.062,0,0,1,.058.412V75.13h.838V73.236a.9.9,0,0,1,.067-.365.479.479,0,0,1,.476-.286.415.415,0,0,1,.408.222.663.663,0,0,1,.058.3V75.13h.852l.006-2a2.833,2.833,0,0,0-.029-.47.918.918,0,0,0-.181-.409" transform="translate(-74.187 -48.654)" fill="#272c44"/><path d="M128.063,72.453a1.254,1.254,0,0,0-.525-.47,1.668,1.668,0,0,0-.715-.149,1.432,1.432,0,0,0-1.087.44,1.767,1.767,0,0,0-.419,1.267,1.578,1.578,0,0,0,.464,1.272,1.614,1.614,0,0,0,1.071.391A1.444,1.444,0,0,0,128,74.741a1.055,1.055,0,0,0,.295-.575h-.849a.691.691,0,0,1-.155.219.6.6,0,0,1-.417.146.707.707,0,0,1-.414-.12.79.79,0,0,1-.3-.671h2.177a4.25,4.25,0,0,0-.026-.63,1.605,1.605,0,0,0-.242-.657m-1.888.738a.9.9,0,0,1,.2-.49.565.565,0,0,1,.448-.181.62.62,0,0,1,.445.171.723.723,0,0,1,.2.5Z" transform="translate(-84.826 -48.624)" fill="#272c44"/><path d="M138.155,71.861a1.054,1.054,0,0,0-.651.193,1.409,1.409,0,0,0-.3.353v-.464h-.8v3.175h.829V73.4a1.232,1.232,0,0,1,.082-.484.58.58,0,0,1,.581-.359.472.472,0,0,1,.467.245.882.882,0,0,1,.067.385v1.935h.852V72.976a1.05,1.05,0,0,0-.314-.856,1.228,1.228,0,0,0-.807-.258" transform="translate(-92.326 -48.642)" fill="#272c44"/><rect width="1.675" height="0.788" transform="translate(47.466 24.416)" fill="#272c44"/><path d="M154.859,71.78a1.47,1.47,0,0,0-1.223.505,1.977,1.977,0,0,0,0,2.392,1.752,1.752,0,0,0,2.446,0,1.975,1.975,0,0,0,0-2.392,1.469,1.469,0,0,0-1.223-.505m.558,2.437a.736.736,0,0,1-1.123,0,1.483,1.483,0,0,1,0-1.475.739.739,0,0,1,1.123,0,1.491,1.491,0,0,1,0,1.475" transform="translate(-103.722 -48.587)" fill="#272c44"/><path d="M167.238,74.387l-.484-2.291h-.843l-.458,2.282-.5-2.282h-.893l.893,3.181h.863l.505-2.317.5,2.317h.855L168.6,72.1h-.867Z" transform="translate(-111.052 -48.801)" fill="#272c44"/><path d="M181.3,71.861a1.054,1.054,0,0,0-.651.193,1.409,1.409,0,0,0-.3.353v-.464h-.8v3.175h.829V73.4a1.232,1.232,0,0,1,.082-.484.58.58,0,0,1,.581-.359.472.472,0,0,1,.467.245.882.882,0,0,1,.067.385v1.935h.852V72.976a1.05,1.05,0,0,0-.314-.856,1.228,1.228,0,0,0-.807-.258" transform="translate(-121.531 -48.642)" fill="#272c44"/><path d="M192.794,72.453a1.255,1.255,0,0,0-.525-.47,1.668,1.668,0,0,0-.715-.149,1.432,1.432,0,0,0-1.087.44,1.767,1.767,0,0,0-.419,1.267,1.578,1.578,0,0,0,.464,1.272,1.614,1.614,0,0,0,1.071.391,1.444,1.444,0,0,0,1.144-.464,1.055,1.055,0,0,0,.295-.575h-.849a.691.691,0,0,1-.155.219.6.6,0,0,1-.417.146.707.707,0,0,1-.414-.12.79.79,0,0,1-.3-.671h2.177a4.246,4.246,0,0,0-.026-.63,1.6,1.6,0,0,0-.242-.657m-1.888.738a.9.9,0,0,1,.2-.49.565.565,0,0,1,.448-.181.621.621,0,0,1,.445.171.724.724,0,0,1,.2.5Z" transform="translate(-128.641 -48.624)" fill="#272c44"/><path d="M202.736,70.163a1.008,1.008,0,0,0-.365-.352,1.03,1.03,0,0,0-.514-.127,1.22,1.22,0,0,0-1,.467,1.991,1.991,0,0,0-.375,1.281,1.731,1.731,0,0,0,.381,1.157,1.181,1.181,0,0,0,.938.45,1.139,1.139,0,0,0,.566-.128,1.175,1.175,0,0,0,.406-.412v.441h.808v-4.3h-.843Zm-.161,1.914a.614.614,0,0,1-.537.263.582.582,0,0,1-.525-.266,1.251,1.251,0,0,1-.175-.7,1.28,1.28,0,0,1,.171-.684.585.585,0,0,1,.535-.276.635.635,0,0,1,.42.152,1.042,1.042,0,0,1,.295.835,1.158,1.158,0,0,1-.184.68" transform="translate(-135.702 -46.466)" fill="#272c44"/><path d="M220.686,70.62a1.022,1.022,0,0,0,.327-.245.959.959,0,0,0,.2-.633,1.091,1.091,0,0,0-.2-.657,1.33,1.33,0,0,0-1.121-.458H217.8v4.3h1.949a3.024,3.024,0,0,0,.612-.058,1.192,1.192,0,0,0,.8-.554,1.254,1.254,0,0,0,.193-.686,1.136,1.136,0,0,0-.168-.63.962.962,0,0,0-.5-.38m-2.026-1.246h.946a1.649,1.649,0,0,1,.514.067.384.384,0,0,1,.233.4.4.4,0,0,1-.175.376.879.879,0,0,1-.461.108h-1.057Zm1.5,2.732a1.041,1.041,0,0,1-.441.076h-1.057V71.035h1.071a1.109,1.109,0,0,1,.435.073.461.461,0,0,1,.277.461.54.54,0,0,1-.286.537" transform="translate(-147.429 -46.453)" fill="#272c44"/><path d="M232.865,73.827a1.242,1.242,0,0,1-.082.493.584.584,0,0,1-.584.345.444.444,0,0,1-.446-.242.994.994,0,0,1-.065-.409V72.1h-.852v1.917a1.946,1.946,0,0,0,.137.826.953.953,0,0,0,.952.508,1.282,1.282,0,0,0,.427-.064,1.164,1.164,0,0,0,.378-.239.6.6,0,0,0,.111-.129q.047-.073.058-.087v.449h.808V72.1h-.843Z" transform="translate(-156.251 -48.802)" fill="#272c44"/><path d="M243.517,73.173a5.274,5.274,0,0,1-.867-.231.217.217,0,0,1-.123-.207.244.244,0,0,1,.116-.2.669.669,0,0,1,.386-.085.569.569,0,0,1,.467.169.492.492,0,0,1,.09.254h.831a1.025,1.025,0,0,0-.429-.823,1.8,1.8,0,0,0-.972-.236,1.389,1.389,0,0,0-.973.317.992.992,0,0,0-.346.757.727.727,0,0,0,.222.572,1.8,1.8,0,0,0,.761.336,4.765,4.765,0,0,1,.867.251.236.236,0,0,1,.117.213.233.233,0,0,1-.144.219.874.874,0,0,1-.389.073.769.769,0,0,1-.572-.166.555.555,0,0,1-.114-.315H241.6a1.03,1.03,0,0,0,.358.807,1.636,1.636,0,0,0,1.107.317,1.653,1.653,0,0,0,1.087-.3.967.967,0,0,0,.352-.772.8.8,0,0,0-.245-.6,1.589,1.589,0,0,0-.744-.353" transform="translate(-163.538 -48.611)" fill="#272c44"/><rect width="0.843" height="0.768" transform="translate(81.596 22.148)" fill="#272c44"/><rect width="0.843" height="3.181" transform="translate(81.596 23.295)" fill="#272c44"/><path d="M259.409,71.861a1.054,1.054,0,0,0-.651.193,1.409,1.409,0,0,0-.3.353v-.464h-.8v3.175h.829V73.4a1.232,1.232,0,0,1,.082-.484.58.58,0,0,1,.581-.359.472.472,0,0,1,.467.245.883.883,0,0,1,.067.385v1.935h.852V72.976a1.05,1.05,0,0,0-.314-.856,1.228,1.228,0,0,0-.807-.258" transform="translate(-174.402 -48.642)" fill="#272c44"/><path d="M270.9,72.453a1.255,1.255,0,0,0-.525-.47,1.668,1.668,0,0,0-.715-.149,1.431,1.431,0,0,0-1.087.44,1.767,1.767,0,0,0-.419,1.267,1.578,1.578,0,0,0,.464,1.272,1.614,1.614,0,0,0,1.071.391,1.444,1.444,0,0,0,1.144-.464,1.055,1.055,0,0,0,.295-.575h-.849a.692.692,0,0,1-.155.219.6.6,0,0,1-.417.146.707.707,0,0,1-.414-.12.79.79,0,0,1-.3-.671h2.177a4.255,4.255,0,0,0-.026-.63,1.606,1.606,0,0,0-.242-.657m-1.888.738a.9.9,0,0,1,.2-.49.564.564,0,0,1,.448-.181.62.62,0,0,1,.445.171.723.723,0,0,1,.2.5Z" transform="translate(-181.513 -48.624)" fill="#272c44"/><path d="M280.53,73.173a5.272,5.272,0,0,1-.867-.231.217.217,0,0,1-.123-.207.244.244,0,0,1,.116-.2.669.669,0,0,1,.386-.085.569.569,0,0,1,.467.169.492.492,0,0,1,.09.254h.831a1.025,1.025,0,0,0-.429-.823,1.8,1.8,0,0,0-.972-.236,1.389,1.389,0,0,0-.973.317.992.992,0,0,0-.346.757.727.727,0,0,0,.222.572,1.8,1.8,0,0,0,.761.336,4.768,4.768,0,0,1,.867.251.236.236,0,0,1,.117.213.233.233,0,0,1-.144.219.874.874,0,0,1-.389.073.769.769,0,0,1-.572-.166.555.555,0,0,1-.114-.315h-.844a1.03,1.03,0,0,0,.358.807,1.636,1.636,0,0,0,1.107.317,1.653,1.653,0,0,0,1.087-.3.967.967,0,0,0,.352-.772.8.8,0,0,0-.245-.6,1.59,1.59,0,0,0-.744-.353" transform="translate(-188.591 -48.611)" fill="#272c44"/><path d="M290.817,73.173a5.273,5.273,0,0,1-.867-.231.217.217,0,0,1-.123-.207.244.244,0,0,1,.116-.2.669.669,0,0,1,.386-.085.569.569,0,0,1,.467.169.491.491,0,0,1,.09.254h.831a1.025,1.025,0,0,0-.429-.823,1.8,1.8,0,0,0-.972-.236,1.389,1.389,0,0,0-.973.317.992.992,0,0,0-.346.757.727.727,0,0,0,.222.572,1.8,1.8,0,0,0,.761.336,4.767,4.767,0,0,1,.867.251.236.236,0,0,1,.117.213.233.233,0,0,1-.144.219.874.874,0,0,1-.389.073.768.768,0,0,1-.572-.166.555.555,0,0,1-.114-.315H288.9a1.03,1.03,0,0,0,.358.807,1.636,1.636,0,0,0,1.107.317,1.653,1.653,0,0,0,1.087-.3.967.967,0,0,0,.352-.772.8.8,0,0,0-.245-.6,1.589,1.589,0,0,0-.744-.353" transform="translate(-195.554 -48.611)" fill="#272c44"/><path d="M306.1,71.05h2.09V70.3H306.1v-.913h2.276v-.762h-3.155v4.3h3.26v-.773H306.1Z" transform="translate(-206.602 -46.453)" fill="#272c44"/><path d="M319.047,71.861a1.054,1.054,0,0,0-.651.193,1.409,1.409,0,0,0-.3.353v-.464h-.8v3.175h.829V73.4a1.231,1.231,0,0,1,.082-.484.58.58,0,0,1,.581-.359.472.472,0,0,1,.467.245.882.882,0,0,1,.067.385v1.935h.852V72.976a1.05,1.05,0,0,0-.314-.856,1.228,1.228,0,0,0-.807-.258" transform="translate(-214.77 -48.642)" fill="#272c44"/><path d="M328.826,69.441H328v.887h-.444v.593H328v1.958a.607.607,0,0,0,.14.44,1.056,1.056,0,0,0,.806.2l.394-.015v-.621l-.083,0-.081,0a.545.545,0,0,1-.3-.048.378.378,0,0,1-.049-.244V70.921h.517v-.593h-.517Z" transform="translate(-221.721 -47.004)" fill="#272c44"/><path d="M336.7,72.453a1.255,1.255,0,0,0-.525-.47,1.668,1.668,0,0,0-.715-.149,1.432,1.432,0,0,0-1.087.44,1.767,1.767,0,0,0-.419,1.267,1.578,1.578,0,0,0,.464,1.272,1.614,1.614,0,0,0,1.071.391,1.444,1.444,0,0,0,1.144-.464,1.055,1.055,0,0,0,.295-.575h-.849a.691.691,0,0,1-.155.219.6.6,0,0,1-.417.146.707.707,0,0,1-.414-.12.79.79,0,0,1-.3-.671h2.177a4.258,4.258,0,0,0-.026-.63,1.6,1.6,0,0,0-.242-.657m-1.888.738a.9.9,0,0,1,.2-.49.565.565,0,0,1,.448-.181.62.62,0,0,1,.445.171.723.723,0,0,1,.2.5Z" transform="translate(-226.05 -48.624)" fill="#272c44"/><path d="M346.727,71.861a.914.914,0,0,0-.607.2,1.749,1.749,0,0,0-.336.435v-.554h-.794v3.181h.837V73.6a1.261,1.261,0,0,1,.1-.566.689.689,0,0,1,.674-.327l.1,0c.041,0,.088.006.14.012v-.852l-.071,0-.039,0" transform="translate(-233.52 -48.642)" fill="#272c44"/><path d="M353.888,71.879a1.051,1.051,0,0,0-.66.213,1.341,1.341,0,0,0-.286.327v-.47h-.8v4.433h.823V74.724a1.218,1.218,0,0,0,.268.307,1.016,1.016,0,0,0,.63.19,1.223,1.223,0,0,0,.973-.441,1.915,1.915,0,0,0,.378-1.281,1.707,1.707,0,0,0-.385-1.208,1.25,1.25,0,0,0-.945-.412m.29,2.376a.6.6,0,0,1-.53.269.671.671,0,0,1-.414-.131.922.922,0,0,1-.295-.779,1.625,1.625,0,0,1,.088-.578.619.619,0,0,1,.621-.429.584.584,0,0,1,.544.283,1.42,1.42,0,0,1-.015,1.366" transform="translate(-238.363 -48.654)" fill="#272c44"/><path d="M365.224,71.861a.914.914,0,0,0-.607.2,1.757,1.757,0,0,0-.336.435v-.554h-.794v3.181h.838V73.6a1.267,1.267,0,0,1,.1-.566.69.69,0,0,1,.674-.327l.1,0c.041,0,.088.006.14.012v-.852l-.072,0-.039,0" transform="translate(-246.041 -48.642)" fill="#272c44"/><rect width="0.843" height="0.768" transform="translate(119.794 22.148)" fill="#272c44"/><rect width="0.843" height="3.181" transform="translate(119.794 23.295)" fill="#272c44"/><path d="M377.163,73.173a5.275,5.275,0,0,1-.867-.231.217.217,0,0,1-.123-.207.244.244,0,0,1,.116-.2.669.669,0,0,1,.386-.085.569.569,0,0,1,.467.169.491.491,0,0,1,.09.254h.831a1.025,1.025,0,0,0-.429-.823,1.8,1.8,0,0,0-.972-.236,1.389,1.389,0,0,0-.973.317.992.992,0,0,0-.346.757.727.727,0,0,0,.222.572,1.8,1.8,0,0,0,.761.336,4.766,4.766,0,0,1,.867.251.236.236,0,0,1,.117.213.233.233,0,0,1-.144.219.874.874,0,0,1-.389.073.768.768,0,0,1-.572-.166.555.555,0,0,1-.114-.315h-.844a1.03,1.03,0,0,0,.358.807,1.636,1.636,0,0,0,1.107.317,1.653,1.653,0,0,0,1.087-.3.967.967,0,0,0,.352-.772.8.8,0,0,0-.245-.6,1.59,1.59,0,0,0-.744-.353" transform="translate(-254.001 -48.611)" fill="#272c44"/><path d="M388.111,72.453a1.255,1.255,0,0,0-.525-.47,1.668,1.668,0,0,0-.715-.149,1.432,1.432,0,0,0-1.087.44,1.767,1.767,0,0,0-.419,1.267,1.578,1.578,0,0,0,.464,1.272,1.614,1.614,0,0,0,1.071.391,1.444,1.444,0,0,0,1.144-.464,1.055,1.055,0,0,0,.295-.575h-.849a.692.692,0,0,1-.155.219.6.6,0,0,1-.417.146.707.707,0,0,1-.414-.12.79.79,0,0,1-.3-.671h2.177a4.245,4.245,0,0,0-.027-.63,1.6,1.6,0,0,0-.242-.657m-1.888.738a.9.9,0,0,1,.2-.49.565.565,0,0,1,.448-.181.621.621,0,0,1,.445.171.724.724,0,0,1,.2.5Z" transform="translate(-260.849 -48.624)" fill="#272c44"/></svg>