<svg xmlns="http://www.w3.org/2000/svg" width="32.518" height="40.647" viewBox="0 0 32.518 40.647">
  <path id="location_on_FILL1_wght400_GRAD0_opsz48_1_" data-name="location_on_FILL1_wght400_GRAD0_opsz48 (1)" d="M176.264-860.184a3.414,3.414,0,0,0,2.511-1.046,3.436,3.436,0,0,0,1.042-2.515,3.414,3.414,0,0,0-1.046-2.51,3.436,3.436,0,0,0-2.515-1.042,3.415,3.415,0,0,0-2.51,1.046,3.437,3.437,0,0,0-1.042,2.515,3.414,3.414,0,0,0,1.046,2.51A3.437,3.437,0,0,0,176.264-860.184Zm0,20.832a67.555,67.555,0,0,1-12.22-12.931Q160-858.253,160-863.335q0-7.621,4.9-12.143A16.241,16.241,0,0,1,176.259-880a16.241,16.241,0,0,1,11.356,4.522q4.9,4.522,4.9,12.143,0,5.081-4.039,11.051A67.557,67.557,0,0,1,176.259-839.353Z" transform="translate(-160 880)" fill="#ffd500"/>
</svg>
